<?xml version="1.0" encoding="iso-8859-1"?>
<!-- Generator: Adobe Illustrator 19.0.0, SVG Export Plug-In . SVG Version: 6.00 Build 0)  -->
<svg version="1.1" id="Capa_1" xmlns="http://www.w3.org/2000/svg" xmlns:xlink="http://www.w3.org/1999/xlink" x="0px" y="0px"
	 viewBox="0 0 512 512" style="enable-background:new 0 0 512 512;" xml:space="preserve">
<path style="fill:#FCDB67;" d="M410.326,302.376c-2.75,0-5-2.25-5-5v-112.43c-26.391-54.491-82.219-92.069-146.826-92.069
	c-67.175,0-124.853,40.626-149.826,98.646v105.853c0,2.75-2.25,5-5,5h-1.497c20.003,67.417,82.415,116.597,156.324,116.597
	s136.321-49.18,156.324-116.597H410.326z"/>
<path style="fill:#FFB98A;" d="M377.921,278.436l-10.311-10.311c-0.151-0.17-0.3-0.34-0.462-0.506L254.572,153.655
	c-7.508-7.83-22.387-12.668-33.064-10.752l-112.834,20.254v108.011l131.49,101.085c7.671,7.67,20.223,7.67,27.893,0l1.065-1.066
	c7.571-7.572,7.655-19.889,0.28-27.584l7.028,7.029c7.671,7.67,20.222,7.67,27.893,0l1.065-1.065
	c7.563-7.564,7.654-19.867,0.301-27.563l7.008,7.008c7.67,7.672,20.222,7.672,27.893,0l1.065-1.064
	c7.57-7.57,7.655-19.885,0.284-27.58l7.023,7.025c7.671,7.67,20.223,7.67,27.893,0l1.065-1.064
	C385.592,298.659,385.592,286.106,377.921,278.436z"/>
<path style="fill:#FFD5B3;" d="M405.326,153.186l-112.45-8.564c-8.277-0.631-16.938,3.492-22.457,9.942l-59.671,57.884
	c-8.153,8.154-8.153,21.498,0,29.652l7.028,7.027c8.154,8.154,21.497,8.154,29.651,0l43.005-43.004
	c2.7,23.781,22.878,42.264,47.382,42.264c3.223,0,6.37-0.324,9.413-0.934l19.92,20.166c0.162,0.166,0.311,0.336,0.462,0.506
	l10.311,10.311c3.384,3.384,5.271,7.719,5.668,12.165l21.737-6.642V153.186H405.326z"/>
<path style="opacity:0.1;enable-background:new    ;" d="M254.572,153.655c-7.508-7.83-22.387-12.668-33.064-10.752l-112.834,20.254
	v24.365l106.685-19.149c9.933-1.782,23.493,2.283,31.381,9.161l16.046-15.564L254.572,153.655z"/>
<g>
	<path style="fill:#FFD5B3;" d="M136.38,316.485c-7.744-5.396-9.14-16.9-3.101-25.566l7.05-10.115
		c6.038-8.666,17.314-11.34,25.06-5.943c7.743,5.397,9.139,16.9,3.101,25.566l-7.05,10.117
		C155.4,319.208,144.124,321.884,136.38,316.485z"/>
	<path style="fill:#FFD5B3;" d="M162.274,339.331c-7.745-5.396-9.14-16.9-3.102-25.566l7.052-10.117
		c6.038-8.664,17.314-11.34,25.059-5.943c7.744,5.396,9.14,16.9,3.102,25.566l-7.051,10.117
		C181.295,342.054,170.019,344.727,162.274,339.331z"/>
	<path style="fill:#FFD5B3;" d="M188.167,362.175c-7.743-5.397-9.14-16.902-3.101-25.566l7.05-10.115
		c6.038-8.666,17.315-11.34,25.06-5.943c7.744,5.396,9.14,16.902,3.102,25.566l-7.051,10.117
		C207.188,364.897,195.911,367.573,188.167,362.175z"/>
	<path style="fill:#FFD5B3;" d="M214.061,385.02c-7.743-5.396-9.139-16.9-3.1-25.566l7.049-10.117
		c6.038-8.664,17.314-11.34,25.059-5.941c7.743,5.395,9.139,16.9,3.1,25.566l-7.05,10.115
		C233.081,387.743,221.805,390.417,214.061,385.02z"/>
</g>
<path style="fill:#E6E9ED;" d="M103.674,143.028H78.787v159.348h24.887c2.75,0,5-2.25,5-5V148.028
	C108.674,145.278,106.424,143.028,103.674,143.028z"/>
<path style="fill:#89C947;" d="M78.787,309.956c0,2.75-2.25,5-5,5H12.5c-2.75,0-5-2.25-5-5V135.448c0-2.75,2.25-5,5-5h61.287
	c2.75,0,5,2.25,5,5V309.956z"/>
<g style="opacity:0.1;">
	<path d="M34.713,309.956V135.448c0-2.75,2.25-5,5-5H12.5c-2.75,0-5,2.25-5,5v174.508c0,2.75,2.25,5,5,5h27.213
		C36.963,314.956,34.713,312.706,34.713,309.956z"/>
</g>
<path style="fill:#FFFFFF;" d="M433.213,143.028h-22.887c-2.75,0-5,2.25-5,5v149.348c0,2.75,2.25,5,5,5h22.887V143.028z"/>
<path style="fill:#EF5050;" d="M504.5,309.956c0,2.75-2.25,5-5,5h-61.287c-2.75,0-5-2.25-5-5V135.448c0-2.75,2.25-5,5-5H499.5
	c2.75,0,5,2.25,5,5V309.956z"/>
<g style="opacity:0.1;">
	<path d="M458,309.956V135.448c0-2.75,2.25-5,5-5h-24.787c-2.75,0-5,2.25-5,5v174.508c0,2.75,2.25,5,5,5H463
		C460.25,314.956,458,312.706,458,309.956z"/>
</g>
<path style="fill:#FFFFFF;" d="M232.568,238.436c-0.957,0-1.805-0.34-2.45-0.986l-7.7-7.699c-1.256-1.256-1.279-3.549-0.061-4.842
	l9.645-9.326l12.442,12.443l-9.423,9.422C234.374,238.097,233.525,238.436,232.568,238.436z"/>
<circle style="fill:#E6E9ED;" cx="42.5" cy="276.261" r="13.5"/>
<circle style="fill:#C5CCD3;" cx="468.5" cy="276.261" r="13.5"/>
<path d="M499.5,122.948h-61.287c-6.893,0-12.5,5.607-12.5,12.5v0.08h-15.387c-5.892,0-10.831,4.102-12.146,9.596
	c-3.235-0.245-6.854-0.52-10.759-0.815c-12.155-14.027-26.553-26.072-42.626-35.519c-3.571-2.1-8.168-0.906-10.266,2.666
	c-2.099,3.571-0.905,8.167,2.666,10.266c10.054,5.908,19.386,12.935,27.837,20.891c-34.035-2.578-73.416-5.554-73.843-5.554
	c-10.371,0-20.575,5.318-27.072,13.351l-1.13,1.093l-3.041-3.079c-7.737-8.04-21.175-13.439-33.46-13.439
	c-2.196,0-4.316,0.181-6.303,0.537l-74.415,13.357c28.359-29.853,68.404-48.502,112.733-48.502c15.104,0,30.03,2.158,44.362,6.416
	c3.975,1.182,8.146-1.083,9.325-5.054c1.18-3.971-1.083-8.146-5.054-9.325c-15.72-4.67-32.083-7.037-48.634-7.037
	c-55.426,0-104.749,26.585-135.919,67.664l-6.407,1.15v-6.162c0-6.893-5.607-12.5-12.5-12.5H93.82
	c35.749-48.768,92.583-81.145,156.97-83.551l-12.698,12.699c-2.929,2.929-2.929,7.678,0,10.606c1.464,1.464,3.384,2.196,5.303,2.196
	c1.919,0,3.839-0.732,5.303-2.197l25.632-25.633c1.407-1.406,2.197-3.313,2.197-5.303s-0.79-3.896-2.197-5.304l-25.632-25.631
	c-2.929-2.928-7.678-2.929-10.606,0.001c-2.929,2.929-2.929,7.678,0,10.607l12.94,12.939
	c-55.724,1.854-107.844,24.417-147.462,64.035c-7.878,7.879-15.061,16.265-21.56,25.063c-2.201-1.93-5.074-3.109-8.224-3.109H12.5
	c-6.893,0-12.5,5.607-12.5,12.5v174.508c0,6.893,5.607,12.5,12.5,12.5h61.287c6.893,0,12.5-5.607,12.5-12.5v-0.08h10.432
	c22.626,67.679,86.589,116.597,161.781,116.597s139.16-48.917,161.784-116.597h5.429v0.08c0,6.893,5.607,12.5,12.5,12.5h13.279
	c-5.237,15.209-12.277,29.811-21.054,43.496c-2.236,3.486-1.222,8.126,2.265,10.362c1.253,0.804,2.656,1.188,4.042,1.188
	c2.47,0,4.888-1.219,6.321-3.452c10.363-16.158,18.477-33.5,24.233-51.594H499.5c6.893,0,12.5-5.607,12.5-12.5V135.448
	C512,128.556,506.393,122.948,499.5,122.948z M412.826,204.878h12.887v12.25h-12.887V204.878z M412.826,232.128h12.887v12.25
	h-12.887V232.128z M425.713,189.878h-12.887V177.63h12.887V189.878z M412.826,259.378h12.887v12.25h-12.887V259.378z
	 M425.713,150.528v12.102h-12.887v-12.102H425.713z M279.752,156.052c3.368-2.46,7.455-3.993,11.438-3.993
	c0.291,0,74.217,5.616,106.637,8.08v118.27l-9.047,2.764c-1.333-2.959-3.197-5.682-5.555-8.04l-10.157-10.156
	c-0.18-0.201-0.365-0.404-0.583-0.627l-11.452-11.593c0.349-0.162,0.703-0.309,1.049-0.479c3.719-1.823,5.257-6.315,3.434-10.035
	c-1.823-3.719-6.316-5.256-10.035-3.434c-5.521,2.706-11.465,4.078-17.666,4.078c-20.459,0-37.625-15.309-39.93-35.609
	c-0.325-2.861-2.259-5.284-4.978-6.234c-2.72-0.952-5.741-0.259-7.777,1.776l-43.005,43.004c-2.527,2.527-5.909,3.92-9.522,3.92
	s-6.995-1.393-9.523-3.92l-7.027-7.026c-5.237-5.238-5.251-13.752-0.041-19.006C216.011,217.792,279.545,156.313,279.752,156.052z
	 M222.833,150.285c1.114-0.199,2.343-0.301,3.653-0.301c8.081,0,17.829,3.81,22.673,8.861c0.026,0.027,0.052,0.054,0.078,0.08
	l2.967,3.004l-46.668,45.127c-0.03,0.029-0.061,0.059-0.09,0.089c-11.098,11.099-11.098,29.159,0.001,40.259l7.028,7.027
	c5.36,5.36,12.509,8.313,20.129,8.313s14.769-2.952,20.129-8.313l33.653-33.652c8.071,20.736,28.207,35.108,51.431,35.108
	c2.289,0,4.552-0.148,6.788-0.42l17.175,17.387l0.234,0.261c0.095,0.107,0.194,0.212,0.296,0.314l10.311,10.311
	c2.293,2.293,3.556,5.362,3.556,8.642s-1.263,6.35-3.555,8.641l-1.067,1.066c-2.293,2.293-5.362,3.557-8.643,3.557
	s-6.351-1.264-8.643-3.556l-6.354-6.356c-0.001-0.001-0.001-0.001-0.001-0.001l-0.611-0.612l-0.056-0.056l0,0l-37.648-37.647
	c-2.929-2.928-7.678-2.928-10.606,0c-2.929,2.93-2.929,7.678,0,10.607l37.55,37.55c4.546,4.765,4.465,12.417-0.185,17.067
	l-1.068,1.067c-2.293,2.293-5.363,3.557-8.643,3.557s-6.349-1.263-8.643-3.558l-7.008-7.008l-37.873-37.872
	c-2.929-2.93-7.678-2.929-10.607-0.001c-2.929,2.929-2.929,7.678-0.001,10.607l37.773,37.773c4.532,4.766,4.445,12.41-0.198,17.054
	l-1.067,1.066c-2.293,2.293-5.363,3.556-8.643,3.557c-3.28,0-6.35-1.264-8.643-3.556l-7.024-7.025
	c-0.001-0.002-0.003-0.003-0.004-0.005l-31.028-31.027c-2.929-2.928-7.678-2.929-10.606,0.001c-2.929,2.929-2.929,7.677,0,10.606
	l30.932,30.932c4.549,4.766,4.469,12.419-0.186,17.075l-1.063,1.063c-2.293,2.293-5.362,3.556-8.643,3.556
	c-0.033,0-0.066-0.004-0.099-0.004c2.762-5.083,3.903-10.817,3.22-16.452c-0.848-6.992-4.355-12.961-9.874-16.806
	c-3.883-2.707-8.499-4.138-13.346-4.138c-0.841,0-1.679,0.044-2.51,0.128c-0.03-0.677-0.079-1.354-0.161-2.029
	c-0.848-6.991-4.356-12.96-9.876-16.808c-3.883-2.706-8.498-4.137-13.345-4.137c-0.839,0-1.674,0.044-2.504,0.128
	c-0.325-7.452-3.775-14.468-10.044-18.837c-3.883-2.706-8.497-4.136-13.344-4.136c-0.84,0-1.676,0.044-2.506,0.128
	c-0.326-7.451-3.774-14.467-10.044-18.836c-3.883-2.706-8.498-4.137-13.345-4.137c-8.662,0-16.944,4.466-22.155,11.945l-2.177,3.124
	l-15.825-12.166v-98.044L222.833,150.285z M139.432,295.207l7.051-10.116c2.373-3.404,6.146-5.521,9.848-5.521
	c1.791,0,3.395,0.486,4.77,1.443c4.296,2.994,4.862,9.921,1.235,15.125l-7.049,10.116c-2.374,3.405-6.147,5.521-9.85,5.521
	c-1.79,0-3.395-0.485-4.769-1.443c-1.97-1.373-3.235-3.612-3.562-6.307C136.741,301.015,137.567,297.884,139.432,295.207z
	 M165.325,318.054l1.888-2.709c0.125-0.172,0.258-0.338,0.38-0.513l4.975-7.14c2.381-3.257,6.049-5.277,9.659-5.277
	c1.79,0,3.394,0.485,4.768,1.442c4.296,2.994,4.863,9.921,1.236,15.125L181.18,329.1c-2.373,3.404-6.146,5.521-9.848,5.521
	c-1.79,0-3.395-0.486-4.769-1.443C162.266,330.183,161.7,323.257,165.325,318.054z M191.219,340.896l1.889-2.711
	c0.125-0.171,0.256-0.335,0.378-0.51l4.979-7.145c2.381-3.252,6.045-5.271,9.653-5.271c1.79,0,3.395,0.486,4.769,1.443
	c1.97,1.373,3.235,3.613,3.562,6.308c0.365,3.011-0.461,6.142-2.326,8.817l-7.05,10.116c-2.374,3.405-6.147,5.521-9.85,5.521
	c-1.79,0-3.395-0.485-4.769-1.443c-1.97-1.372-3.234-3.612-3.561-6.308C188.529,346.703,189.355,343.572,191.219,340.896z
	 M217.115,363.741l1.9-2.727c0.121-0.165,0.248-0.323,0.365-0.492l4.99-7.161c2.381-3.243,6.04-5.255,9.641-5.255
	c1.79,0,3.395,0.485,4.77,1.444c1.969,1.371,3.233,3.61,3.56,6.305c0.365,3.011-0.461,6.144-2.325,8.819l-7.051,10.116
	c-2.372,3.404-6.146,5.52-9.848,5.52c-1.79,0-3.395-0.486-4.769-1.443C214.053,375.873,213.487,368.946,217.115,363.741z
	 M78.787,252.501c-4.142,0-7.5,3.357-7.5,7.5v47.455H15V137.948h56.287v87.053c0,4.143,3.358,7.5,7.5,7.5s7.5-3.357,7.5-7.5v-74.473
	h14.887v144.348H86.287v-34.875C86.287,255.858,82.929,252.501,78.787,252.501z M258.5,411.473
	c-67.872,0-125.714-43.7-146.903-104.438c2.792-2.294,4.577-5.771,4.577-9.659v-10.982l7.832,6.022
	c-1.708,4.275-2.341,8.878-1.791,13.416c0.848,6.991,4.355,12.96,9.876,16.807c3.883,2.707,8.499,4.138,13.346,4.138
	c0.842,0,1.679-0.055,2.511-0.138c0.322,7.456,3.766,14.477,10.038,18.847c3.883,2.706,8.498,4.137,13.345,4.137
	c0.842,0,1.678-0.055,2.511-0.138c0.029,0.68,0.079,1.359,0.161,2.037c0.848,6.991,4.355,12.96,9.875,16.807
	c3.883,2.707,8.499,4.138,13.346,4.138c0.842,0,1.679-0.055,2.511-0.138c0.321,7.455,3.765,14.475,10.037,18.847
	c3.883,2.706,8.498,4.137,13.345,4.137c8.452,0,16.535-4.261,21.764-11.417c2.92,1.047,6.028,1.611,9.23,1.611
	c7.287,0,14.123-2.822,19.252-7.951l1.064-1.064c3.931-3.932,6.4-8.824,7.397-13.962c2.721,0.893,5.601,1.357,8.554,1.357
	c7.287,0,14.122-2.823,19.247-7.947l1.068-1.067c3.93-3.931,6.397-8.822,7.395-13.961c2.722,0.894,5.602,1.357,8.556,1.357
	c7.287,0,14.124-2.823,19.247-7.948l1.068-1.066c3.932-3.933,6.4-8.824,7.398-13.962c2.721,0.892,5.6,1.356,8.553,1.356
	c7.287,0,14.123-2.823,19.247-7.947l1.067-1.066c4.218-4.217,6.873-9.594,7.683-15.425l6.919-2.114v3.282
	c0,4.924,2.87,9.18,7.018,11.216C383.215,368.515,325.79,411.473,258.5,411.473z M412.826,294.876v-8.248h12.887v8.248H412.826z
	 M497,307.456h-56.287V137.948H497V307.456z"/>
<path d="M217.115,235.055l7.696,7.695c2.052,2.055,4.807,3.187,7.757,3.187c2.951,0,5.707-1.133,7.756-3.184l9.423-9.422
	c1.406-1.406,2.197-3.314,2.197-5.304c0-1.989-0.79-3.896-2.196-5.303l-12.442-12.443c-2.894-2.895-7.575-2.934-10.517-0.089
	l-9.645,9.326c-0.083,0.081-0.165,0.163-0.244,0.247C212.867,224.044,212.963,230.902,217.115,235.055z M231.914,226.101
	l1.924,1.925l-1.269,1.268l-1.946-1.945L231.914,226.101z"/>
<path d="M255.697,216.06c1.464,1.464,3.384,2.196,5.303,2.196s3.839-0.732,5.303-2.196c2.929-2.93,2.929-7.678,0-10.607l-11.5-11.5
	c-2.929-2.928-7.678-2.928-10.606,0c-2.929,2.93-2.929,7.678,0,10.607L255.697,216.06z"/>
<path d="M468.5,297.257c11.58,0,21-9.421,21-21s-9.42-21-21-21s-21,9.421-21,21S456.92,297.257,468.5,297.257z M468.5,270.257
	c3.309,0,6,2.691,6,6s-2.691,6-6,6s-6-2.691-6-6S465.191,270.257,468.5,270.257z"/>
<path d="M42.5,255.257c-11.58,0-21,9.421-21,21s9.42,21,21,21s21-9.421,21-21S54.08,255.257,42.5,255.257z M42.5,282.257
	c-3.309,0-6-2.691-6-6s2.691-6,6-6s6,2.691,6,6S45.809,282.257,42.5,282.257z"/>
<path d="M421.219,391.413c-3.086-2.762-7.828-2.501-10.59,0.586c-38.401,42.9-93.296,67.633-150.79,68.012l12.684-12.686
	c2.929-2.929,2.928-7.678-0.001-10.606c-2.93-2.928-7.678-2.929-10.607,0.001l-25.63,25.633c-2.929,2.929-2.928,7.677,0,10.606
	l25.63,25.631c1.464,1.464,3.384,2.196,5.303,2.196s3.839-0.733,5.303-2.196c2.929-2.93,2.929-7.678,0-10.608l-12.968-12.968
	c61.859-0.299,120.946-26.864,162.253-73.012C424.568,398.917,424.305,394.176,421.219,391.413z"/>
<g>
</g>
<g>
</g>
<g>
</g>
<g>
</g>
<g>
</g>
<g>
</g>
<g>
</g>
<g>
</g>
<g>
</g>
<g>
</g>
<g>
</g>
<g>
</g>
<g>
</g>
<g>
</g>
<g>
</g>
</svg>
