<svg height="512pt" viewBox="0 0 512 512" width="512pt" xmlns="http://www.w3.org/2000/svg"><path d="m475.550781 8.601562h-3.601562v-3.601562c0-2.800781-2.199219-5-5-5s-5 2.199219-5 5v3.601562h-3.597657c-2.800781 0-5 2.199219-5 5 0 2.796876 2.199219 5 5 5h3.597657v3.597657c0 2.800781 2.199219 5 5 5s5-2.199219 5-5v-3.597657h3.601562c2.800781 0 5-2.203124 5-5 0-2.800781-2.199219-5-5-5zm0 0" fill="#ffcd29"/><path d="m451.75 64c0-.398438-.199219-.601562-.199219-1-.199219-.199219-.199219-.601562-.402343-.800781-.199219-.199219-.398438-.597657-.597657-.800781-2-1.796876-5-1.796876-7 0-.199219.203124-.402343.402343-.601562.800781-.398438.601562-.597657 1.199219-.800781 1.800781-.199219.601562-.199219 1.398438 0 2 0 .398438.203124.601562.203124 1 .199219.398438.199219.601562.398438.800781s.398438.597657.601562.800781c2 2 5 2 7 0 .199219-.203124.398438-.402343.597657-.800781.199219-.199219.402343-.601562.402343-.800781.199219-.199219.199219-.601562.199219-1 .398438-.800781.398438-1.398438.199219-2zm0 0" fill="#ea4647"/><path d="m9.75 412c0-.398438-.199219-.601562-.199219-1-.199219-.199219-.199219-.601562-.402343-.800781-.199219-.199219-.398438-.597657-.597657-.800781-2-1.796876-5-1.796876-7 0-.199219.203124-.402343.402343-.601562.800781-.398438.601562-.597657 1.199219-.800781 1.800781-.1992192.601562-.1992192 1.398438 0 2 0 .398438.203124.601562.203124 1 .199219.398438.199219.601562.398438.800781s.398438.597657.601562.800781c2 2 5 2 7 0 .199219-.203124.398438-.402343.597657-.800781.199219-.199219.402343-.601562.402343-.800781.199219-.199219.199219-.601562.199219-1 .398438-.800781.398438-1.398438.199219-2zm0 0" fill="#6dcc6d"/><path d="m91.75 498c-6.601562-1.199219-11.800781-6.398438-13.199219-13.199219 0-.199219-.199219-.199219-.402343-.199219-.199219 0-.199219.199219-.199219.199219-1.199219 6.597657-6.398438 11.800781-13.199219 13.199219-.199219 0-.199219.199219-.199219.398438 0 .203124.199219.203124.199219.203124 6.601562 1.199219 11.800781 6.398438 13.199219 13.199219 0 .199219.199219.199219.402343.199219.199219 0 .199219-.199219.199219-.199219 1.199219-6.601562 6.398438-11.800781 13.199219-13.199219.199219 0 .199219-.203124.199219-.402343 0 0 0-.199219-.199219-.199219zm0 0" fill="#55acd5"/><path d="m402.949219 20h-357.597657c-7.402343 0-13.203124 6-13.203124 13.199219v421.601562c0 7.398438 6 13.199219 13.203124 13.199219h357.597657c1.199219 0 2.199219-.199219 3.402343-.398438-50.402343-4.800781-87.402343-49.800781-82.601562-100.203124 4.601562-47 44.199219-83 91.398438-83h1.203124v-251.199219c-.203124-7.398438-6-13.199219-13.402343-13.199219zm0 0" fill="#acdef9"/><path d="m153.75 104.601562h140.800781c5.398438 0 9.800781 4.398438 9.800781 9.796876 0 5.402343-4.402343 9.800781-9.800781 9.800781h-140.800781c-5.398438 0-9.800781-4.398438-9.800781-9.800781 0-5.398438 4.402343-9.796876 9.800781-9.796876zm0 0" fill="#55acd5"/><path d="m402.949219 20h-357.597657c-7.402343 0-13.203124 6-13.203124 13.199219v35.800781h384.203124v-35.800781c-.203124-7.398438-6-13.199219-13.402343-13.199219zm0 0" fill="#6d6c6b"/><path d="m166.550781 156.800781h203.597657v49.597657h-203.597657zm0 0" fill="#e9e9ea"/><path d="m166.550781 232.199219h203.597657v49.601562h-203.597657zm0 0" fill="#e9e9ea"/><path d="m263.148438 395c0-6.199219-5-11-11-11h-75.199219c-6.199219 0-11 5-11 11 .199219 15.800781-.199219 16.398438.402343 19 1.398438 4.800781 5.597657 8.199219 10.597657 8.199219h75c5 0 9.402343-3.398438 10.601562-8.199219.800781-2.398438.398438-3.199219.597657-19zm0 0" fill="#6dcc6d"/><path d="m353.949219 307.601562h-187.398438v49.597657h158.800781c3.796876-19.199219 14-36.597657 28.597657-49.597657zm0 0" fill="#e9e9ea"/><path d="m506.949219 376.199219c0 50.699219-41.097657 91.800781-91.800781 91.800781-50.699219 0-91.796876-41.101562-91.796876-91.800781s41.097657-91.800781 91.796876-91.800781c50.703124 0 91.800781 41.101562 91.800781 91.800781zm0 0" fill="#6dcc6d"/><path d="m428.75 409.601562c-.199219.199219-.398438.398438-.800781.597657-7.597657 4.800781-17.800781 2.800781-23-4.597657l-19.398438-27.800781c-5.199219-7.402343-3.800781-17.800781 3.597657-23.199219.203124-.203124.402343-.402343.800781-.601562l-17-24.398438-9.398438 18.597657c-4.402343 10.800781-3.199219 23 3.597657 32.601562l29 41.398438c6.601562 9.601562 17.800781 15 29.402343 14.402343l20.398438-2.601562zm0 0" fill="#55acd5"/><path d="m375.949219 319 12.601562-8.800781c2.199219-1.597657 5.199219-1 6.800781 1.199219l18.199219 26c1.597657 2.203124 1 5.203124-1.199219 6.800781l-15.601562 11c-2.199219 1.601562-5.199219 1-6.800781-1.199219l-16-23c-2.800781-3.800781-1.800781-9.199219 2-12zm0 0" fill="#acdef9"/><path d="m470.550781 418.800781-18.199219-26c-1.601562-2.199219-4.601562-2.800781-6.800781-1.199219l-15.601562 11c-2.199219 1.597657-2.800781 4.597657-1.199219 6.796876l16 23c2.800781 3.800781 8 4.800781 12 2.203124l12.601562-8.800781c2.199219-1.800781 2.796876-4.800781 1.199219-7zm0 0" fill="#acdef9"/><path d="m415.148438 473c-53.398438 0-96.796876-43.398438-96.796876-96.800781 0-53.398438 43.398438-96.800781 96.796876-96.800781 53.402343 0 96.800781 43.402343 96.800781 96.800781 0 53.402343-43.398438 96.800781-96.800781 96.800781zm0-183.601562c-48 0-86.796876 38.800781-86.796876 86.800781s38.796876 86.800781 86.796876 86.800781 86.800781-38.800781 86.800781-86.800781-39-86.800781-86.800781-86.800781zm0 0"/><path d="m402.949219 473h-357.597657c-10 0-18.203124-8.199219-18.203124-18.199219v-421.601562c0-10 8.203124-18.199219 18.203124-18.199219h357.597657c10 0 18.199219 8.199219 18.199219 18.199219v251.199219c0 1.402343-.597657 2.601562-1.398438 3.601562-1 1-2.199219 1.398438-3.601562 1.398438h-1.199219c-48 0-86.800781 38.800781-86.800781 86.800781 0 44.800781 34 82.199219 78.402343 86.402343 2.800781.199219 4.800781 2.796876 4.597657 5.398438-.199219 2-1.597657 3.800781-3.796876 4.398438-1.402343.402343-2.800781.601562-4.402343.601562zm-357.597657-448c-4.601562 0-8.203124 3.800781-8.203124 8.199219v421.601562c0 4.597657 3.800781 8.199219 8.203124 8.199219h326.597657c-48-23.800781-67.398438-82-43.597657-130 15.796876-31.601562 47.597657-52.199219 82.796876-53.601562v-246.199219c0-4.597657-3.796876-8.199219-8.199219-8.199219zm0 0"/><path d="m423.75 441.601562c-12.800781 0-24.601562-6.203124-32-16.601562l-29-41.398438c-7.800781-11-9.199219-25-4-37.402343 0-.199219.199219-.199219.199219-.398438l9.402343-18.601562c1.199219-2.398438 4.199219-3.398438 6.796876-2.199219.800781.398438 1.402343 1 1.800781 1.601562l17 24.398438c1.601562 2.199219 1 5.398438-1.199219 7-.199219.199219-.398438.199219-.601562.398438-5 4-6.199219 11.203124-2.398438 16.402343l19.398438 27.800781c3.601562 5.199219 10.800781 6.796876 16.203124 3.398438.199219-.199219.398438-.199219.597657-.398438 2.199219-1.601562 5.402343-1 7 1.199219l17.199219 24.597657c1.601562 2.203124 1 5.402343-1.199219 7-.597657.402343-1.398438.800781-2.199219.800781l-20.800781 2.402343c-.199219 0-.199219 0-.398438 0-.601562 0-1.199219 0-1.800781 0zm-55.800781-91.402343c-3.800781 9.199219-2.597657 19.601562 3 27.601562l29 41.398438c5.601562 8.199219 15 12.800781 25 12.402343l12.199219-1.402343-9.796876-14c-9.601562 4-20.601562.601562-26.402343-7.800781l-19.398438-27.796876c-6-8.402343-5.402343-19.800781 1.597657-27.402343l-9.796876-14zm0 0"/><path d="m393.949219 361c-3.199219 0-6.199219-1.601562-8.199219-4.199219l-16-23c-4.199219-6.199219-2.800781-14.601562 3.398438-18.800781l12.601562-8.800781c4.398438-3.199219 10.601562-2 13.800781 2.402343l18.199219 26c3.199219 4.398438 2 10.597657-2.398438 13.796876l-15.601562 11c-1.800781 1-3.800781 1.601562-5.800781 1.601562zm-2.597657-46.800781-12.402343 8.800781c-1.597657 1.199219-2 3.398438-.800781 5l16 23 15.402343-11zm0 0"/><path d="m451.949219 441c-.800781 0-1.597657 0-2.398438-.199219-3.601562-.601562-6.800781-2.601562-8.800781-5.601562l-16-23c-3.199219-4.398438-2-10.597657 2.398438-13.800781l15.601562-11c4.398438-3.199219 10.601562-2 13.800781 2.402343l18.199219 26c3.199219 4.398438 2 10.597657-2.398438 13.800781l-12.601562 8.796876c-2.398438 1.800781-5 2.601562-7.800781 2.601562zm-3.597657-45.199219-15.601562 11 16 22.800781c1.199219 1.597657 3.398438 2 5 .796876l12.601562-8.796876zm0 0"/><path d="m294.550781 129.398438h-140.800781c-8.199219 0-14.800781-6.398438-15-14.597657 0-8.199219 6.398438-14.800781 14.601562-15h.398438 140.800781c8.199219 0 14.800781 6.800781 14.597657 15 0 8-6.597657 14.398438-14.597657 14.597657zm-140.800781-19.796876c-2.601562 0-4.800781 2-5 4.796876 0 2.601562 2 4.800781 4.800781 5h.199219 140.800781c2.597657 0 4.800781-2.199219 4.800781-5 0-2.597657-2.203124-4.597657-4.800781-4.796876zm0 0"/><g fill="#231f20"><path d="m61.351562 49.199219c-.402343 0-.601562 0-1 0-.402343 0-.601562-.199219-1-.199219-.402343-.199219-.601562-.199219-.800781-.398438-.199219-.203124-.601562-.402343-.800781-.601562-1-1-1.398438-2.199219-1.398438-3.601562 0-.398438 0-.597657 0-1 0-.398438.199219-.597657.199219-1 .199219-.398438.199219-.597657.398438-.796876.199219-.203124.402343-.601562.601562-.800781s.398438-.402343.800781-.601562c.199219-.199219.597657-.398438.796876-.398438 1.203124-.601562 2.601562-.601562 3.800781 0 .402343.199219.601562.199219.800781.398438s.601562.402343.800781.601562.398438.398438.597657.800781c.203124.199219.402343.597657.402343.796876.199219.402343.199219.601562.398438 1v1c0 1.402343-.597657 2.601562-1.398438 3.601562-.199219.199219-.402343.398438-.800781.601562-.199219.199219-.601562.398438-.800781.398438-.398438.199219-.597657.199219-1 .199219 0 0-.398438 0-.597657 0zm0 0"/><path d="m78.949219 49.199219c-2.800781 0-5-2.199219-5-5 0-.398438 0-.597657 0-1 0-.398438.199219-.597657.199219-1 .203124-.398438.203124-.597657.402343-.800781.199219-.199219.398438-.597657.597657-.796876.203124-.203124.402343-.402343.800781-.601562.601562-.398438 1.199219-.601562 1.800781-.800781s1.398438-.199219 2 0 1.199219.402343 1.800781.800781c.199219.199219.597657.398438.800781.601562.199219.199219.398438.398438.597657.796876.199219.203124.402343.601562.402343.800781.199219.402343.199219.601562.199219 1v1c.398438 2.800781-1.800781 5-4.601562 5zm0 0"/><path d="m96.550781 49.199219c-2.800781 0-5-2.199219-5-5 0-.398438 0-.597657 0-1 0-.398438.199219-.597657.398438-1 .199219-.398438.199219-.597657.402343-.800781.199219-.199219.398438-.597657.597657-.796876.199219-.203124.402343-.402343.800781-.601562.199219-.199219.601562-.398438.800781-.398438.398438-.203124.597657-.203124 1-.203124 1.597657-.398438 3.398438.203124 4.398438 1.402343.199219.199219.402343.398438.601562.800781.199219.199219.398438.597657.398438.796876.199219.402343.199219.601562.402343 1v1c.199219 2.402343-2 4.800781-4.800781 4.800781zm0 0"/><path d="m364.949219 49.199219h-231.199219c-2.800781 0-5-2.199219-5-5s2.199219-5 5-5h231.199219c2.800781 0 5 2.199219 5 5s-2.199219 5-5 5zm0 0"/><path d="m416.148438 74h-384.199219c-2.800781 0-5-2.199219-5-5v-35.800781c0-10 8.199219-18.199219 18.199219-18.199219h357.601562c10 0 18.199219 8.199219 18.199219 18.199219v35.800781c.199219 2.800781-2 5-4.800781 5zm-379.199219-10h374.199219v-30.800781c0-4.597657-3.796876-8.199219-8.199219-8.199219h-357.597657c-4.601562 0-8.203124 3.800781-8.203124 8.199219zm0 0"/><path d="m369.949219 211.398438h-203.398438c-2.800781 0-5-2.199219-5-5v-49.597657c0-2.800781 2.199219-5 5-5h203.398438c2.800781 0 5 2.199219 5 5v49.597657c0 2.800781-2.199219 5-5 5zm-198.398438-10h193.597657v-39.597657h-193.597657zm0 0"/><path d="m139.75 171.398438h-61.800781c-2.800781 0-5-2.199219-5-5 0-2.796876 2.199219-5 5-5h61.800781c2.800781 0 5 2.203124 5 5 0 2.800781-2.199219 5-5 5zm0 0"/><path d="m369.949219 286.800781h-203.398438c-2.800781 0-5-2.199219-5-5v-49.601562c0-2.800781 2.199219-5 5-5h203.398438c2.800781 0 5 2.199219 5 5v49.601562c0 2.800781-2.199219 5-5 5zm-198.398438-10h193.597657v-39.601562h-193.597657zm0 0"/><path d="m139.75 246.800781h-61.800781c-2.800781 0-5-2.199219-5-5s2.199219-5 5-5h61.800781c2.800781 0 5 2.199219 5 5s-2.199219 5-5 5zm0 0"/><path d="m139.75 322.199219h-61.800781c-2.800781 0-5-2.199219-5-5s2.199219-5 5-5h61.800781c2.800781 0 5 2.199219 5 5s-2.199219 5-5 5zm0 0"/><path d="m251.949219 427.199219h-75c-7.199219 0-13.597657-4.800781-15.398438-11.800781-.601562-2.796876-.800781-5.597657-.601562-8.398438 0-2.601562 0-6.199219 0-12 0-8.800781 7.199219-16 16-16.199219h75c8.800781 0 16 7.199219 16 16v12c.199219 2.800781 0 5.597657-.597657 8.398438-1.800781 7.199219-8.203124 12-15.402343 12zm-75-38.199219c-3.398438 0-6 2.800781-6 6v12c-.199219 1.800781-.199219 3.800781.199219 5.601562.800781 2.597657 3.203124 4.398438 5.800781 4.398438h75c2.800781 0 5.199219-1.800781 5.800781-4.398438.398438-1.800781.398438-3.800781.199219-5.601562 0-2.601562 0-6.398438 0-12 0-3.398438-2.800781-6-6-6zm86.199219 6"/><path d="m325.148438 362.199219h-158.597657c-2.800781 0-5-2.199219-5-5v-49.597657c0-2.800781 2.199219-5 5-5h187.398438c2.800781 0 5 2.199219 5 5 0 1.398438-.597657 2.796876-1.597657 3.796876-13.800781 12.402343-23.402343 28.800781-27.203124 47-.597657 2.203124-2.597657 3.800781-5 3.800781zm-153.597657-10h149.800781c3.597657-14.597657 10.796876-28.199219 20.796876-39.597657h-170.597657zm0 0"/></g></svg>