<svg height="511pt" viewBox="0 -1 511.99984 511" width="511pt" xmlns="http://www.w3.org/2000/svg"><path d="m365.648438 8.898438h-269.265626c-14.636718 0-26.609374 11.972656-26.609374 26.605468v154.097656c0 14.632813 11.972656 26.605469 26.609374 26.605469h269.265626c14.632812 0 26.605468-11.972656 26.605468-26.605469 0-2.550781 0-151.761718 0-154.097656 0-14.632812-11.972656-26.605468-26.605468-26.605468zm0 0" fill="#9ad14b"/><path d="m370.761719 148.9375v-72.773438c0-1.886718-1.53125-3.417968-3.417969-3.417968h-10.183594c-15.816406 0-28.753906-12.9375-28.753906-28.753906v-10.183594c0-1.886719-1.53125-3.417969-3.417969-3.417969h-187.945312c-1.886719 0-3.417969 1.53125-3.417969 3.417969v10.183594c0 15.816406-12.941406 28.757812-28.753906 28.757812h-10.183594c-1.886719 0-3.417969 1.527344-3.417969 3.417969v72.773437c0 1.777344 1.453125 3.414063 3.417969 3.414063h10.183594c15.816406 0 28.753906 12.941406 28.753906 28.757812v10.183594c0 1.886719 1.53125 3.417969 3.417969 3.417969h187.945312c1.886719 0 3.417969-1.53125 3.417969-3.417969v-10.183594c0-15.816406 12.9375-28.757812 28.753906-28.757812h10.183594c1.964844 0 3.417969-1.636719 3.417969-3.417969zm0 0" fill="#76ab29"/><path d="m293.410156 112.550781c0-34.457031-27.933594-62.410156-62.410156-62.410156-34.464844 0-62.410156 27.941406-62.410156 62.410156 0 34.324219 27.824218 62.335938 62.277344 62.40625.046874 0 .089843.003907.136718.003907.042969 0 .085938-.003907.132813-.003907 34.117187-.070312 62.273437-27.714843 62.273437-62.40625zm0 0" fill="#9ad14b"/><path d="m89.988281 189.601562c0-2.535156 0-151.761718 0-154.097656 0-14.632812 11.972657-26.605468 26.605469-26.605468h-20.210938c-14.636718 0-26.609374 11.972656-26.609374 26.605468v154.097656c0 14.632813 11.972656 26.605469 26.609374 26.605469h20.210938c-14.632812 0-26.605469-11.972656-26.605469-26.605469zm0 0" fill="#7fbb37"/><path d="m153.839844 191.296875v-10.183594c0-15.816406-12.941406-28.757812-28.757813-28.757812h-10.183593c-1.957032 0-3.414063-1.632813-3.414063-3.417969v-72.773438c0-1.886718 1.527344-3.417968 3.414063-3.417968h10.183593c15.816407 0 28.757813-12.9375 28.757813-28.753906v-10.183594c0-1.886719 1.527344-3.417969 3.417968-3.417969h-20.214843c-1.886719 0-3.417969 1.53125-3.417969 3.417969v10.183594c0 15.816406-12.941406 28.757812-28.753906 28.757812h-10.183594c-1.886719 0-3.417969 1.527344-3.417969 3.417969v72.773437c0 1.777344 1.457031 3.414063 3.417969 3.414063h10.183594c15.816406 0 28.753906 12.941406 28.753906 28.757812v10.183594c0 1.886719 1.53125 3.417969 3.417969 3.417969h20.214843c-1.886718 0-3.417968-1.53125-3.417968-3.417969zm0 0" fill="#6c9b1b"/><path d="m188.804688 112.550781c0-31.027343 22.644531-56.75 52.304687-61.582031-3.292969-.535156-6.664063-.828125-10.109375-.828125-34.464844 0-62.410156 27.941406-62.410156 62.410156 0 34.324219 27.824218 62.335938 62.277344 62.40625.042968 0 .089843.003907.132812.003907.046875 0 .089844-.003907.136719-.003907 3.386719-.003906 6.710937-.296875 9.957031-.824219-29.683594-4.847656-52.289062-30.644531-52.289062-61.582031zm0 0" fill="#7fbb37"/><path d="m122.140625 305.785156c-26.472656 9.972656-81.75 30.800782-107.800781 40.621094-5.503906 2.074219-8.277344 8.210938-6.207032 13.707031l50.988282 135.300781c2.070312 5.5 8.207031 8.277344 13.710937 6.207032l18.738281-7.0625c7.792969-2.9375 64.78125-24.414063 89.058594-33.5625zm0 0" fill="#72bdf6"/><path d="m170.101562 439.167969v-.003907c-13.167968 4.964844-104.152343 39.25-115.738281 43.617188l4.757813 12.632812c2.070312 5.5 8.207031 8.277344 13.710937 6.203126l18.742188-7.058594c7.789062-2.941406 64.78125-24.414063 89.054687-33.5625l-8.511718-22.589844zm0 0" fill="#4b98d4"/><path d="m362.0625 302.351562s-1.3125-25.421874-28.058594-25.421874c-74.070312 0-83.460937-1.277344-99.765625 4.929687v-.003906l-59.226562 24.496093 45.222656 120.015626c46.667969-19.339844 28.484375-16.464844 114.40625-16.464844 10.261719-.488282 32.917969-3.921875 50.015625-23.523438.007812-.007812.011719-.015625.019531-.023437l109.667969-117.832031c3.472656-3.980469 20.148438-25.890626 1.402344-44.308594-20.882813-19.238282-42.601563 2.46875-44.476563 4.171875z" fill="#f0a479"/><path d="m198.734375 296.542969-23.722656 9.808593 45.222656 120.015626 23.71875-9.828126zm0 0" fill="#e8956b"/><path d="m160.714844 291.246094-40.394532 15.222656 58.488282 155.214844 40.394531-15.226563c4.855469-1.828125 7.308594-7.238281 5.476563-12.089843l-51.867188-137.648438c-1.832031-4.851562-7.242188-7.300781-12.097656-5.472656zm0 0" fill="#e4e3e1"/><path d="m224.679688 434.367188-5.695313-15.117188c-1.117187 1.367188-2.589844 2.46875-4.359375 3.136719l-44.328125 16.707031 8.511719 22.589844 40.394531-15.222656c4.855469-1.828126 7.304687-7.242188 5.476563-12.09375zm0 0" fill="#d1d0cf"/><path d="m213.9375 126.144531c-3.664062 0-6.554688 4.816407-6.554688 8.09375 0 6.167969 9.445313 12.140625 21.007813 12.523438v2.410156c0 1.351563 1.539063 2.601563 3.660156 2.601563 1.832031 0 3.660157-1.25 3.660157-2.601563v-2.792969c11.277343-1.832031 18.984374-9.058594 18.984374-21.007812 0-13.007813-10.214843-17.535156-18.984374-20.8125v-14.070313c6.265624.480469 8.097656 3.566407 11.277343 3.566407 4.238281 0 5.972657-5.300782 5.972657-7.902344 0-6.648438-11.273438-8.191406-17.25-8.382813v-2.410156c0-1.347656-1.828126-2.601563-3.660157-2.601563-2.121093 0-3.660156 1.253907-3.660156 2.601563v2.699219c-10.214844 1.445312-19.273437 7.324218-19.273437 19.5625 0 12.332031 10.40625 16.476562 19.273437 19.847656v15.613281c-7.132813-1.253906-10.40625-6.9375-14.453125-6.9375zm20.8125-6.074219c3.46875 1.640626 5.878906 3.664063 5.878906 6.84375 0 3.46875-2.601562 5.300782-5.878906 6.070313zm-11.5625-23.894531c0-2.3125 1.832031-4.527343 6.164062-5.398437v11.46875c-3.660156-1.542969-6.164062-3.277344-6.164062-6.070313zm0 0"/><path d="m137.175781 201.316406h187.945313c6.019531 0 10.917968-4.894531 10.917968-10.917968v-10.183594c0-11.71875 9.535157-21.253906 21.253907-21.253906h10.183593c5.964844 0 10.917969-4.882813 10.917969-10.917969v-72.773438c0-1.46875-.289062-2.898437-.859375-4.25-1.710937-4.050781-5.660156-6.667969-10.058594-6.667969h-10.183593c-11.71875 0-21.253907-9.535156-21.253907-21.253906v-10.183594c0-6.023437-4.898437-10.917968-10.917968-10.917968h-187.945313c-6.019531 0-10.917969 4.894531-10.917969 10.917968v10.183594c0 11.71875-9.535156 21.253906-21.253906 21.253906h-10.183594c-6.054687 0-10.917968 4.90625-10.917968 10.917969v72.773438c0 6 4.910156 10.917969 10.917968 10.917969h10.183594c11.71875 0 21.253906 9.535156 21.253906 21.253906v10.183594c0 6.023437 4.898438 10.917968 10.917969 10.917968zm-32.171875-57.359375h-6.101562v-64.601562h6.101562c19.992188 0 36.253906-16.265625 36.253906-36.257813v-6.101562h179.78125v6.101562c0 19.992188 16.261719 36.257813 36.253907 36.257813h6.101562v64.605469h-6.101562c-19.992188 0-36.257813 16.261718-36.257813 36.253906v6.101562h-179.773437v-6.101562c0-19.992188-16.265625-36.257813-36.257813-36.257813zm0 0"/><path d="m230.90625 181.566406h.230469.234375c38.425781-.128906 69.675781-31.472656 69.675781-69.910156 0-38.546875-31.363281-69.910156-69.910156-69.910156-38.550781 0-69.914063 31.363281-69.914063 69.910156 0 38.4375 31.242188 69.777344 69.683594 69.910156zm.230469-124.820312c30.273437 0 54.90625 24.632812 54.90625 54.910156 0 30.210938-24.578125 54.839844-54.773438 54.90625-.089843 0-.1875 0-.253906 0-30.210937-.066406-54.789063-24.695312-54.789063-54.90625 0-30.277344 24.632813-54.910156 54.910157-54.910156zm0 0"/><path d="m446.46875 221.660156-80.113281 66.4375c-4.472657-9.832031-14.085938-19.667968-32.296875-19.667968-74.609375 0-84.664063-1.34375-102.433594 5.417968-.0625.023438-.132812.050782-.195312.078125l-50.835938 21.023438-.707031-1.875c-3.296875-8.75-13.042969-13.136719-21.761719-9.84375-91.277344 34.390625-114.195312 43.027343-146.367188 55.15625-9.386718 3.527343-14.121093 13.984375-10.585937 23.371093l50.984375 135.300782c3.53125 9.359375 14.007812 14.105468 23.375 10.578125 9.863281-3.714844 140.789062-53.054688 146.375-55.160157 8.734375-3.289062 13.144531-13.019531 9.851562-21.753906l-.660156-1.753906c2.238282-.953125 4.308594-1.839844 6.242188-2.667969 17.613281-7.542969 21.796875-9.335937 37.828125-9.875 4.140625-.140625 7.386719-3.609375 7.246093-7.75-.140624-4.140625-3.59375-7.394531-7.75-7.246093-18.84375.636718-24.992187 3.269531-43.230468 11.082031-1.757813.75-3.625 1.550781-5.632813 2.40625l-39.914062-105.921875 51.175781-21.164063c14.75-5.59375 23.539062-4.398437 96.996094-4.398437 8.15625 0 13.828125 2.804687 17.335937 8.574218 2.480469 4.074219 3.085938 8.367188 3.207031 9.460938-.179687 2.542969-1.785156 16.582031-15.425781 18.898438-20.554687 3.488281-64.875 9.835937-65.320312 9.898437-4.101563.585937-6.949219 4.386719-6.363281 8.488281.535156 3.738282 3.742187 6.4375 7.414062 6.4375.355469 0 .710938-.023437 1.074219-.074218.445312-.066407 44.960937-6.441407 65.703125-9.960938 19.003906-3.226562 26.050781-19.429688 27.597656-29.996094l86.832031-72c.085938-.070312.171875-.144531.257813-.222656l.34375-.320312c8.632812-8.070313 21.515625-15.300782 33.917968-3.964844 14.113282 13.984375.980469 30.648437-1.863281 33.917968-1.878906 2.015626-14.972656 16.082032-109.546875 117.699219-.054687.058594-.109375.117188-.164062.179688-15.359375 17.605469-36.136719 20.527343-44.542969 20.953125-9.355469 0-17.460937-.035156-24.554687-.070313-.011719 0-.027344 0-.039063 0-4.125 0-7.480469 3.332031-7.5 7.460938-.023437 4.144531 3.320313 7.519531 7.460937 7.539062 7.164063.039063 15.355469.074219 24.816407.074219.121093 0 .238281-.003906.359375-.011719 10.199218-.484375 35.976562-3.996093 55.226562-25.992187 3.328125-3.578125 109.113282-117.234375 109.605469-117.761719h-.003906c.058593-.0625.113281-.125.171875-.1875 34.589844-39.671875-12.96875-88.777344-53.589844-50.792969zm-376.226562 271.9375c-1.617188.609375-3.4375-.207031-4.046876-1.828125l-50.984374-135.300781c-.609376-1.617188.199218-3.429688 1.832031-4.042969 32.15625-12.121093 76.535156-28.84375 98.957031-37.292969 2.335938 6.203126 50.867188 134.976563 53.199219 141.175782-25.152344 9.476562-88.585938 33.382812-98.957031 37.289062zm147.472656-57.585937c.371094.980469-.125 2.058593-1.101563 2.425781l-33.375 12.578125c-2.28125-6.050781-50.800781-134.800781-53.199219-141.171875l33.378907-12.578125h.003906c.984375-.371094 2.0625.132813 2.425781 1.097656zm0 0"/><path d="m96.515625 222.8125h269.265625c18.808594 0 34.109375-15.300781 34.109375-34.109375v-59.542969c0-4.144531-3.355469-7.503906-7.5-7.503906s-7.503906 3.359375-7.503906 7.503906v59.542969c0 10.535156-8.570313 19.105469-19.105469 19.105469h-269.265625c-10.535156 0-19.105469-8.570313-19.105469-19.105469v-154.097656c0-10.53125 8.570313-19.101563 19.105469-19.101563h269.269531c10.53125 0 19.101563 8.570313 19.101563 19.105469v59.542969c0 4.144531 3.359375 7.5 7.503906 7.5s7.5-3.355469 7.5-7.5v-59.546875c0-18.804688-15.300781-34.105469-34.109375-34.105469h-269.265625c-18.808594 0-34.109375 15.300781-34.109375 34.109375v154.09375c0 18.808594 15.300781 34.109375 34.109375 34.109375zm0 0"/></svg>