<svg id="Layer_5" enable-background="new 0 0 64 64" height="512" viewBox="0 0 64 64" width="512" xmlns="http://www.w3.org/2000/svg" xmlns:xlink="http://www.w3.org/1999/xlink"><linearGradient id="SVGID_1_" gradientUnits="userSpaceOnUse" x1="32" x2="32" y1="63" y2=".895"><stop offset="0" stop-color="#9f2fff"/><stop offset="1" stop-color="#0bb1d3"/></linearGradient><path d="m59 9.693 2.574 1.211.852-1.81-17.426-8.199-17.426 8.2.852 1.81 2.574-1.212v9.307h-4v16h-7v-2.105c2.833-.558 5-3.433 5-6.895 0-3.86-2.691-7-6-7-2.086 0-3.924 1.249-5 3.139-1.076-1.89-2.914-3.139-5-3.139-3.309 0-6 3.14-6 7 0 3.462 2.167 6.337 5 6.895v2.105h-5c-1.103 0-2 .897-2 2v2c0 1.103.897 2 2 2v22h60v-44h-4zm-26-.941 12-5.647 12 5.647v10.248h-2v-8h-8v8h-4v-8h-8v8h-2zm20 10.248h-4v-6h4zm-12 0h-4v-6h4zm16 30h-4v-4h4zm-6-6v6h-2v-10h12v10h-2v-6zm6-6h-4v-4h4zm2 0v-6h-8v6h-2v-10h12v10zm-12 24h-4v-34h4zm-10-12h-4v-4h4zm-6-6v6h-2v-10h12v10h-2v-6zm-26 4h4v4h-4zm6 0h4v4h-4zm4-6v4h-4v-4zm12 4h-4v-4h4zm-6 0h-4v-4h4zm-4 2h4v4h-4zm6 0h4v4h-4zm14-10h-4v-4h4zm4 0h-2v-6h-8v6h-2v-10h12zm-22-16c2.206 0 4 2.243 4 5 0 2.323-1.28 4.263-3 4.822v-5.822h-2v5.822c-1.72-.559-3-2.5-3-4.822 0-2.757 1.794-5 4-5zm-14 5c0-2.757 1.794-5 4-5s4 2.243 4 5c0 2.323-1.28 4.263-3 4.822v-5.822h-2v5.822c-1.72-.559-3-2.499-3-4.822zm5 6.895c1.666-.328 3.101-1.453 4-3.034.899 1.58 2.334 2.706 4 3.034v2.105h-8zm-7 4.105h24v2h-24zm6 4v4h-4v-4zm12 20h-10v-4h10zm2 0v-6h-14v6h-4v-8h22v8zm6-10h12v10h-2v-6h-8v6h-2zm8 10h-4v-4h4zm20 0h-4v-4h4zm2 0v-6h-8v6h-2v-10h12v10zm2-36h-32v-4h32z" fill="url(#SVGID_1_)"/></svg>