<svg id="Layer_5" enable-background="new 0 0 64 64" height="512" viewBox="0 0 64 64" width="512" xmlns="http://www.w3.org/2000/svg" xmlns:xlink="http://www.w3.org/1999/xlink"><linearGradient id="SVGID_1_" gradientUnits="userSpaceOnUse" x1="32" x2="32" y1="63" y2="1"><stop offset="0" stop-color="#9f2fff"/><stop offset="1" stop-color="#0bb1d3"/></linearGradient><path d="m55.631 33.007c-.916-1.871-1.439-3.926-1.572-6.007h.941c2.757 0 5-2.243 5-5v-12c0-2.414-1.721-4.434-4-4.899v-1.101c0-1.654-1.346-3-3-3h-18c-1.654 0-3 1.346-3 3v1.101c-.048.01-.091.03-.138.042-.279-.085-.565-.143-.862-.143h-18c-1.654 0-3 1.346-3 3v1.101c-2.279.465-4 2.485-4 4.899v12c0 2.757 2.243 5 5 5h.941c-.133 2.081-.656 4.136-1.572 6.007-3.098.038-5.876 1.769-7.264 4.546l-.105.211v5.033c-1.224 1.283-2 3.137-2 5.203 0 3.462 2.167 6.337 5 6.895v2.105h-5v2h62v-25.236l-.105-.211c-1.389-2.777-4.166-4.508-7.264-4.546zm4.468 3.993h-32.198c1.16-1.258 2.796-2 4.571-2h23.056c1.775 0 3.411.742 4.571 2zm-6.674-4h-18.85c.803-1.9 1.279-3.94 1.395-6h16.059c.117 2.06.593 4.101 1.396 6zm1.575-8h-20-2c-1.302 0-2.402-.839-2.816-2h27.631c-.413 1.161-1.513 2-2.815 2zm-43-10v4h-4v-4zm42 6v-4h4v4zm-24-4h4v4h-4zm6 0h4v4h-4zm6 0h4v4h-4zm6 0h4v4h-4zm6-2v-4h4v4zm-2 0h-4v-4h4zm-6 0h-4v-4h4zm-6 0h-4v-4h4zm-6 0h-4v-4h4zm-6 4h-2v-4h2zm-4 0h-4v-4h4zm-6 0h-4v-4h4zm-6 2v4h-4v-4zm2 0h4v4h-4zm6 0h4v4h-4zm6 0h2v1c0 1.13.391 2.162 1.026 3h-3.026zm31.816-12h-27.632c.414-1.161 1.514-2 2.816-2h22c1.302 0 2.402.839 2.816 2zm-22.816-6h18c.551 0 1 .449 1 1v1h-20v-1c0-.551.449-1 1-1zm-22 4h16.026c-.442.584-.773 1.257-.924 2h-16.102v-1c0-.551.449-1 1-1zm-2 4h17v2h-19.816c.414-1.161 1.514-2 2.816-2zm-2.816 16h24.816.941c-.043.672-.126 1.338-.253 2h-22.688c-1.302 0-2.402-.839-2.816-2zm24.989 4c-.226.686-.487 1.359-.804 2.007-2.882.035-5.471 1.547-6.938 3.993h-12.856c.803-1.9 1.279-3.94 1.395-6zm-22.701 8h14.528v2h-19.099c1.16-1.258 2.796-2 4.571-2zm-7.472 13c0-2.757 1.794-5 4-5s4 2.243 4 5c0 2.323-1.28 4.263-3 4.822v-5.822h-2v5.822c-1.72-.559-3-2.499-3-4.822zm5 6.895c1.666-.328 3.101-1.453 4-3.034.899 1.58 2.334 2.706 4 3.034v2.105h-8zm8-7.895v5.822c-1.72-.559-3-2.5-3-4.822 0-2.757 1.794-5 4-5s4 2.243 4 5c0 2.323-1.28 4.263-3 4.822v-5.822zm2 10v-2.105c2.833-.558 5-3.433 5-6.895 0-3.86-2.691-7-6-7-2.086 0-3.924 1.249-5 3.139-1.076-1.89-2.914-3.139-5-3.139-.702 0-1.373.149-2 .408v-2.408h20v18zm25-14v14h-6v-14zm8 0v14h-6v-14zm2 14v-14h2v-2h-22v2h2v14h-8v-22h34v22zm-14-30v-2h2v2zm6 0h-2v-2h2zm4 0h-2v-2h2zm-23 4h-2v-2h2zm-10 0v-2h2v2zm6 0h-2v-2h2zm7 14h2v2h-2zm0 4h2v2h-2zm0 4h2v2h-2zm28-8h2v2h-2zm0 4h2v2h-2zm0 4h2v2h-2z" fill="url(#SVGID_1_)"/></svg>