<svg id="Layer_5" enable-background="new 0 0 64 64" height="512" viewBox="0 0 64 64" width="512" xmlns="http://www.w3.org/2000/svg" xmlns:xlink="http://www.w3.org/1999/xlink"><linearGradient id="SVGID_1_" gradientUnits="userSpaceOnUse" x1="32" x2="32" y1="63" y2="1"><stop offset="0" stop-color="#9f2fff"/><stop offset="1" stop-color="#0bb1d3"/></linearGradient><path d="m29.508 19.844c-.191.764-.022 1.559.462 2.18.485.62 1.215.976 2.003.976 1.029 0 1.949-.613 2.345-1.563l5.182-12.437h-4.882l2-4h-7.311l-3.75 10h5.162zm-1.065-6.844 2.25-6h2.689l-2 4h5.118l-4.028 9.667c-.084.202-.28.333-.499.333-.23 0-.366-.13-.426-.208-.061-.077-.154-.241-.098-.464l1.832-7.328zm-2.897 12 6.084 6.953c.582.665 1.423 1.047 2.307 1.047 1.688 0 3.063-1.374 3.063-3.063v-4.937h8c2.757 0 5-2.243 5-5v-14c0-2.757-2.243-5-5-5h-26c-2.757 0-5 2.243-5 5v14c0 2.757 2.243 5 5 5zm-9.546-5v-14c0-1.654 1.346-3 3-3h26c1.654 0 3 1.346 3 3v14c0 1.654-1.346 3-3 3h-10v6.937c0 .585-.477 1.063-1.063 1.063-.307 0-.599-.133-.801-.363l-6.682-7.637h-7.454c-1.654 0-3-1.346-3-3zm4-9h-2v-2h2zm0 4h-2v-2h2zm0-8h-2v-2h2zm26 14h-2v-2h2zm0-8h-2v-2h2zm0 4h-2v-2h2zm-28 34v2h-2v-2zm-2 4h2v2h-2zm35.451-13.357c2.139-1.438 3.549-3.878 3.549-6.643 0-4.411-3.589-8-8-8s-8 3.589-8 8c0 2.765 1.41 5.205 3.549 6.643-4.885 1.419-8.801 5.106-10.549 9.842-1.748-4.737-5.664-8.424-10.549-9.842 2.139-1.438 3.549-3.878 3.549-6.643 0-4.411-3.589-8-8-8s-8 3.589-8 8c0 2.765 1.41 5.205 3.549 6.643-6.662 1.934-11.549 8.081-11.549 15.357v6h30 2 30v-6c0-7.276-4.887-13.423-11.549-15.357zm-9.628 9.369-.613-6.743c.308-.141.624-.267.944-.386l3.427 3.998zm4.177-.877 1-.833 1 .833v6.865h-2zm2.419-2.254 3.427-3.998c.32.119.635.245.944.386l-.613 6.743zm-1.419-18.881c2.607 0 4.824 1.673 5.65 4h-1.583c-1.154 0-2.272-.339-3.233-.979l-1.961-1.309-.58.58c-1.058 1.057-2.452 1.653-3.94 1.698.829-2.321 3.044-3.99 5.647-3.99zm-6 6h.171c1.812 0 3.53-.611 4.919-1.737l.635.423c1.291.86 2.793 1.314 4.342 1.314h1.933c0 3.309-2.691 6-6 6s-6-2.691-6-6zm8.735 8.272-2.735 3.192-2.735-3.191c.885-.177 1.799-.273 2.735-.273s1.85.096 2.735.272zm-24.934 6.377-2.801 2.101v-7.75-.061c.264.101.525.208.781.325zm-1.555 11.351h-1.246v-6.882l2.811 1.405zm-14.057-5.477 2.811-1.405v6.882h-1.246zm2.03-11.259c.256-.117.517-.224.781-.325v.061 7.75l-2.801-2.101zm2.781 3.71c.838.635 1.87 1.026 3 1.026s2.162-.391 3-1.026v13.026h-6zm3-18.974c2.607 0 4.824 1.673 5.65 4h-.228c-1.386 0-2.729-.406-3.883-1.176l-1.539-1.026-1.539 1.026c-1.154.77-2.497 1.176-3.883 1.176h-.228c.826-2.327 3.043-4 5.65-4zm-6 6h.578c1.782 0 3.509-.522 4.993-1.512l.429-.286.43.286c1.484.99 3.21 1.512 4.992 1.512h.578c0 3.309-2.691 6-6 6s-6-2.691-6-6zm9 8.332v.668c0 1.654-1.346 3-3 3s-3-1.346-3-3v-.668c.968-.212 1.97-.332 3-.332s2.032.12 3 .332zm-17 13.668c0-4.502 2.145-8.504 5.457-11.066l-1.656 4.417 3.305 2.479-3.295 1.647 1.863 6.523h-5.674zm28 4h-5.674l1.864-6.523-3.295-1.647 3.305-2.479-1.656-4.417c3.311 2.562 5.456 6.564 5.456 11.066zm30 0h-28v-4c0-4.875 2.508-9.171 6.298-11.679l.879 9.667 3.823-3.186v7.198h6v-7.198l3.823 3.186.879-9.667c3.79 2.508 6.298 6.804 6.298 11.679z" fill="url(#SVGID_1_)"/></svg>