<svg id="Layer_5" enable-background="new 0 0 64 64" height="512" viewBox="0 0 64 64" width="512" xmlns="http://www.w3.org/2000/svg" xmlns:xlink="http://www.w3.org/1999/xlink"><linearGradient id="SVGID_1_" gradientUnits="userSpaceOnUse" x1="32" x2="32" y1="63" y2="1"><stop offset="0" stop-color="#9f2fff"/><stop offset="1" stop-color="#0bb1d3"/></linearGradient><path d="m59 20h-.414l-1.586 1.586v-8l-12.586-12.586h-37.414v16.459l-6 5.077v2.464h2v14h4v24h50v-23.586l3-3c.645-.646 1-1.503 1-2.414s-.355-1.769-1-2.414l-.586-.586.586-.586v-.414c0-.776-.132-1.521-.367-2.219l3.367-3.367v-.414c0-2.206-1.794-4-4-4zm-1.016 9.602-4.984 4.984-4.586-4.586 4.984-4.984c2.44.193 4.393 2.145 4.586 4.586zm-29.442 21.354 3.502 3.502-4.669 1.168zm5.458 2.63-4.586-4.586 14.586-14.586 4.586 4.586zm16-16-4.586-4.586 1.586-1.586 4.586 4.586zm-7-26.586h-4v-4h4zm-16 0v-4h4v4zm6-4h4v4h-4zm12-2.586 8.586 8.586h-8.586zm-30 8.896 11.452 9.69h-22.904zm-10 11.69h20v12h-4v-8h-12v8h-4zm14 12h-8v-6h8zm36 24h-46v-22h18v-14h2v-2.464l-14-11.846-6 5.077v-12.767h34v2h-18v8h18v2h12v8.295c-.634-.19-1.305-.295-2-.295h-.414l-3.586 3.586v-1.586h-18v2h17.586l-2 2h-15.586v2h13.586l-2 2h-11.586v2h9.586l-13.489 13.488-2.472 9.886 9.886-2.471 20.489-20.489v3.172l-3.086 3.086c-.581.581-.914 1.385-.914 2.207 0 1.721 1.4 3.121 3.121 3.121h.879zm0-16h-.879c-.618 0-1.121-.503-1.121-1.121 0-.295.12-.584.328-.793l1.672-1.672zm3.585-12c.268.268.415.622.415 1s-.147.732-.414 1l-1.586 1.586v-3.172l1-1zm.087-7.086c-.441-.61-.976-1.145-1.586-1.586l2.292-2.292c.8.153 1.432.785 1.586 1.586zm-35.672 31.086v2c-1.25 0-1.881-.843-2.299-1.4-.378-.504-.489-.6-.698-.6-.21 0-.321.096-.699.6-.418.558-1.049 1.4-2.299 1.4s-1.883-.842-2.302-1.399c-.38-.505-.492-.601-.703-.601-.21 0-.322.096-.7.6-.418.557-1.049 1.4-2.3 1.4v-2c.21 0 .322-.096.7-.6.418-.558 1.049-1.4 2.3-1.4 1.25 0 1.883.842 2.302 1.399.38.505.492.601.703.601.209 0 .32-.096.698-.6.418-.558 1.049-1.4 2.299-1.4s1.881.843 2.299 1.4c.379.504.49.6.699.6zm-10-4h-2v-2h2zm2 0v-2h2v2zm4 0v-2h2v2zm2-4h-10v-2h10zm0-4h-10v-2h10zm28-26h-18v-2h18zm0 4h-18v-2h18zm-2 34h2v2h-2zm-4 0h2v2h-2zm8 0h2v2h-2z" fill="url(#SVGID_1_)"/></svg>