<svg id="Layer_5" enable-background="new 0 0 64 64" height="512" viewBox="0 0 64 64" width="512" xmlns="http://www.w3.org/2000/svg" xmlns:xlink="http://www.w3.org/1999/xlink"><linearGradient id="SVGID_1_" gradientUnits="userSpaceOnUse" x1="32" x2="32" y1="63" y2="1.029"><stop offset="0" stop-color="#9f2fff"/><stop offset="1" stop-color="#0bb1d3"/></linearGradient><path d="m53 45.184v-3.184c0-2.757-2.243-5-5-5s-5 2.243-5 5v3.184c-1.161.414-2 1.514-2 2.816v4c0 3.859 3.141 7 7 7s7-3.141 7-7v-4c0-1.302-.839-2.402-2-2.816zm-5-6.184c1.654 0 3 1.346 3 3v3h-6v-3c0-1.654 1.346-3 3-3zm5 13c0 2.757-2.243 5-5 5s-5-2.243-5-5v-4c0-.552.448-1 1-1h8c.552 0 1 .448 1 1zm-5-4c-1.654 0-3 1.346-3 3 0 1.302.839 2.402 2 2.816v2.184h2v-2.184c1.161-.414 2-1.514 2-2.816 0-1.654-1.346-3-3-3zm0 4c-.552 0-1-.448-1-1s.448-1 1-1 1 .448 1 1-.448 1-1 1zm-39.515-3.857 3.571-2.143-3.571-2.143 1.029-1.715 4.486 2.692 4.485-2.691 1.029 1.715-3.57 2.142 3.571 2.143-1.029 1.715-4.486-2.692-4.485 2.691zm51.515-29.143h2.477l-4.8-12h-17.498l-5.768-5.089c-1.334-1.176-3.487-1.176-4.823 0l-5.767 5.089h-17.498l-4.8 12h2.477v20h-3v14h2v10h6v-10h10v10h6v-10h2v-4h6.051c.518 7.805 7.015 14 14.949 14 8.271 0 15-6.729 15-15 0-3.362-1.125-6.458-3-8.962zm-2 17.851c-2.657-2.386-6.156-3.851-10-3.851v-11.076c1.466-.301 2.623-1.458 2.924-2.924h7.076zm-20.164.149c-2.735 2.529-4.523 6.055-4.786 10h-.05v-10zm2.712-2h-17.548v4h-5v-8h28v2.149c-1.963.264-3.804.903-5.452 1.851zm-9.548-19c0-.552.448-1 1-1s1 .448 1 1-.448 1-1 1-1-.448-1-1zm1-3c-1.654 0-3 1.346-3 3 0 .352.072.686.184 1h-4.981l7.797-6.683 7.796 6.683h-4.98c.112-.314.184-.648.184-1 0-1.654-1.346-3-3-3zm-10.13 6h20.259l2.446 2.097c.416.356.906.6 1.425.747v7.156h-28v-7.156c.519-.147 1.008-.391 1.425-.748zm34.453-10 3.2 8h-8.757c-.211-.597-.553-1.145-1.037-1.573l-7.284-6.427zm-25.412-5.589c.602-.529 1.577-.529 2.177 0l15.317 13.516c.378.333.595.813.595 1.317 0 .968-.788 1.756-1.756 1.756h-.224c-.419 0-.825-.15-1.144-.422l-13.876-11.895-13.876 11.894c-.318.273-.725.423-1.144.423h-.225c-.967 0-1.755-.788-1.755-1.756 0-.504.217-.984.595-1.317zm-23.234 5.589h13.877l-7.284 6.427c-.485.428-.826.976-1.037 1.573h-8.756zm-1.677 10h7.076c.301 1.466 1.458 2.623 2.924 2.924v17.076h-10zm1 42h-2v-8h2zm16 0h-2v-8h2zm2-10h-22v-10h22zm0-12v-2h6v10h-4v-8zm23 22c-7.168 0-13-5.832-13-13s5.832-13 13-13 13 5.832 13 13-5.832 13-13 13zm2-30h6v-8h-6zm2-6h2v4h-2zm-44 6h6v-8h-6zm2-6h2v4h-2zm20-4h-8v6h8zm-2 4h-4v-2h4zm14-4h-8v6h8zm-2 4h-4v-2h4z" fill="url(#SVGID_1_)"/></svg>