<svg id="Layer_5" enable-background="new 0 0 64 64" height="512" viewBox="0 0 64 64" width="512" xmlns="http://www.w3.org/2000/svg" xmlns:xlink="http://www.w3.org/1999/xlink"><linearGradient id="SVGID_1_" gradientUnits="userSpaceOnUse" x1="32" x2="32" y1="63" y2="1"><stop offset="0" stop-color="#9f2fff"/><stop offset="1" stop-color="#0bb1d3"/></linearGradient><path d="m43 7h-18v-2h18zm0 2h-18v2h18zm-2 6h2v-2h-2zm-4 0h2v-2h-2zm-2-2h-10v2h10zm18 36c0 .966-.359 1.901-1 2.63v3.37h-6v-3.37c-.641-.729-1-1.664-1-2.63 0-2.206 1.794-4 4-4s4 1.794 4 4zm-2 0c0-1.103-.897-2-2-2s-2 .897-2 2c0 .564.238 1.09.67 1.479l.33.298v2.223h2v-2.223l.33-.298c.432-.389.67-.915.67-1.479zm10-26h2v30h-4v3c0 1.654-1.346 3-3 3h-9v4h-46v-49.414l12.586-12.586h33.414v16h14zm-2-4h-18v4h18zm-54.586-6h8.586v-8.586zm40.586 46h-3c-1.654 0-3-1.346-3-3v-3h-12v-18h10v-12h2v-6h6v-14h-30v12h-12v46h42zm12-15c0-.552-.448-1-1-1h-14c-.552 0-1 .448-1 1v12c0 .552.448 1 1 1h14c.552 0 1-.448 1-1zm-2-7c0-3.309-2.691-6-6-6s-6 2.691-6 6v4h2v-4c0-2.206 1.794-4 4-4s4 1.794 4 4v4h2zm-4 0c0-1.103-.897-2-2-2s-2 .897-2 2v4h4zm10-12h-22v12h-10v14h10v-7c0-1.302.839-2.402 2-2.816v-4.184c0-4.411 3.589-8 8-8s8 3.589 8 8v4.184c1.161.414 2 1.514 2 2.816v7h2zm-30 14h6v10h-6zm2 8h2v-6h-2zm-2-22h-26v-8h26zm-12-2h4v-4h-4zm-2-4h-4v4h4zm-10 4h4v-4h-4zm22-4h-4v4h4zm2 8h-26v2h26zm-4 4h-22v2h22zm2 2h2v-2h-2zm-24 4h20v-2h-20zm12 2h-12v2h12zm2 0v2h2v-2zm4 2h2v-2h-2zm-18 2h20v16h-20zm2 14h16v-12h-16z" fill="url(#SVGID_1_)"/></svg>