<svg id="Layer_5" enable-background="new 0 0 64 64" height="512" viewBox="0 0 64 64" width="512" xmlns="http://www.w3.org/2000/svg" xmlns:xlink="http://www.w3.org/1999/xlink"><linearGradient id="SVGID_1_" gradientUnits="userSpaceOnUse" x1="32" x2="32" y1="63" y2="1"><stop offset="0" stop-color="#9f2fff"/><stop offset="1" stop-color="#0bb1d3"/></linearGradient><path d="m5 51h8v-6h-8zm2-4h4v2h-4zm8 4h8v-6h-8zm2-4h4v2h-4zm8 4h8v-6h-8zm2-4h4v2h-4zm24 12h8v-6h-8zm2-4h4v2h-4zm-14 4h8v-6h-8zm2-4h4v2h-4zm10-4h8v-6h-8zm2-4h4v2h-4zm-14 4h8v-6h-8zm2-4h4v2h-4zm10-4h8v-6h-8zm2-4h4v2h-4zm-14 4h8v-6h-8zm2-4h4v2h-4zm-19-8h-6c-1.103 0-2 .897-2 2v4c0 1.103.897 2 2 2h6c1.103 0 2-.897 2-2v-4c0-1.103-.897-2-2-2zm-6 6v-4h6l.001 4zm26-36h2v2h-2zm21 7c0-3.86-3.14-7-7-7h-10v2h10c2.757 0 5 2.243 5 5s-2.243 5-5 5h-1v4h-2v-5c0-.551.449-1 1-1h2c1.654 0 3-1.346 3-3s-1.346-3-3-3h-8v2h8c.551 0 1 .449 1 1s-.449 1-1 1h-2c-1.654 0-3 1.346-3 3v5h-2v9.946l-2 .667v-4.938l-16 4.571v13.754h-.219l-5-20h-3.781v-1c0-1.654 1.346-3 3-3h3c2.415 0 4.435-1.721 4.899-4h.101c3.309 0 6-2.691 6-6s-2.691-6-6-6h-2v2h2c2.206 0 4 1.794 4 4s-1.794 4-4 4h-2v1c0 1.654-1.346 3-3 3h-3c-2.757 0-5 2.243-5 5v1h-2v-2c0-3.309 2.691-6 6-6h4l.196-1.98-1.907-.381c-1.327-.266-2.289-1.44-2.289-2.792 0-1.57 1.277-2.847 2.847-2.847h2.153v-2h-2.153c-2.673 0-4.847 2.174-4.847 4.847 0 1.208.451 2.332 1.205 3.192-4.039.4-7.205 3.818-7.205 7.961v2h-3.781l-5 20h-1.219c-2.757 0-5 2.243-5 5v17h62v-40h-2.162l-1.838.613v-6.613h-2v-2.071c3.388-.487 6-3.408 6-6.929zm-38.781 15 1 4h-12.438l1-4zm-11.938 6h13.438l3 12h-19.438zm16.719 32h-20v-6h20zm6 0h-4v-8h-24v8h-4v-15c0-1.654 1.346-3 3-3h.719 24.562.719c1.654 0 3 1.346 3 3zm2 0v-15c0-2.415-1.721-4.435-4-4.899v-6.101h28v26zm24-35.946v7.946h-28v-4.246l12-3.429v5.062zm-10 1.225v-7.279h6v5.279zm-7-21.279h2v2h-2z" fill="url(#SVGID_1_)"/></svg>