<svg id="Layer_5" enable-background="new 0 0 64 64" height="512" viewBox="0 0 64 64" width="512" xmlns="http://www.w3.org/2000/svg" xmlns:xlink="http://www.w3.org/1999/xlink"><linearGradient id="SVGID_1_" gradientUnits="userSpaceOnUse" x1="32" x2="32" y1="63" y2="1"><stop offset="0" stop-color="#9f2fff"/><stop offset="1" stop-color="#0bb1d3"/></linearGradient><path d="m57 36.66c0-.721-.341-1.414-.913-1.855l-13.087-10.067-13.087 10.068c-.572.44-.913 1.133-.913 1.854 0 1.174.872 2.139 2 2.305v14.035h24v-14.034c1.128-.167 2-1.132 2-2.306zm-10 14.34h-8v-2c0-2.206 1.794-4 4-4s4 1.794 4 4zm2 0v-2c0-3.309-2.691-6-6-6s-6 2.691-6 6v2h-4v-12h20v12zm5.66-14h-23.32c-.187 0-.34-.152-.34-.34 0-.105.05-.206.133-.27l11.867-9.128 11.867 9.128c.083.064.133.165.133.27 0 .188-.153.34-.34.34zm5.34-22h-1.78l-23.247-10.73c.008-.09.027-.177.027-.27 0-1.654-1.346-3-3-3s-3 1.346-3 3c0 .093.019.18.027.27l-23.247 10.73h-1.78c-1.654 0-3 1.346-3 3v2c0 1.302.839 2.402 2 2.816v32.369c-1.161.413-2 1.513-2 2.815v2c0 1.654 1.346 3 3 3h56c1.654 0 3-1.346 3-3v-2c0-1.302-.839-2.402-2-2.816v-32.368c1.161-.414 2-1.514 2-2.816v-2c0-1.654-1.346-3-3-3zm-28-12c.551 0 1 .448 1 1s-.449 1-1 1-1-.448-1-1 .449-1 1-1zm-2.144 3.091c.545.559 1.303.909 2.144.909s1.599-.35 2.144-.909l19.303 8.909h-42.894zm-24.856 48.909v-32h54v32zm56 5c0 .552-.449 1-1 1h-56c-.551 0-1-.448-1-1v-2c0-.552.449-1 1-1h56c.551 0 1 .448 1 1zm0-40c0 .552-.449 1-1 1h-56c-.551 0-1-.448-1-1v-2c0-.552.449-1 1-1h56c.551 0 1 .448 1 1zm-54 21h20v-16h-20zm2-14h16v12h-16zm13.293 2.293 1.414 1.414-4.707 4.707-3-3-4.293 4.293-1.414-1.414 5.707-5.707 3 3zm-15.293 13.707h20v2h-20zm14 6h-14v-2h14zm2-2h4v2h-4zm-16 4h12v2h-12zm14 0h2v2h-2zm4 0h2v2h-2z" fill="url(#SVGID_1_)"/></svg>