<svg id="Layer_5" enable-background="new 0 0 64 64" height="512" viewBox="0 0 64 64" width="512" xmlns="http://www.w3.org/2000/svg" xmlns:xlink="http://www.w3.org/1999/xlink"><linearGradient id="SVGID_1_" gradientUnits="userSpaceOnUse" x1="32" x2="32" y1="63" y2="1"><stop offset="0" stop-color="#9f2fff"/><stop offset="1" stop-color="#0bb1d3"/></linearGradient><path d="m7 59h12v-6h-12zm2-4h8v2h-8zm-2-10v6h12v-6zm10 4h-8v-2h8zm8-40h-16v8h16zm-2 6h-12v-4h12zm2 20v-2h2v2zm10 0h-2v-2h2zm-4 0h-2v-2h2zm5-19c0 .551.448 1 1 1 1.654 0 3 1.346 3 3s-1.346 3-3 3-3-1.346-3-3h2c0 .551.448 1 1 1s1-.449 1-1-.448-1-1-1c-1.654 0-3-1.346-3-3s1.346-3 3-3 3 1.346 3 3h-2c0-.551-.448-1-1-1s-1 .449-1 1zm8-3c-1.654 0-3 1.346-3 3v7h2v-2h2v2h2v-7c0-1.654-1.346-3-3-3zm-1 6v-3c0-.551.448-1 1-1s1 .449 1 1v3zm8 2h2v2h-4v-10h2zm4-8h4v2h-2v2h2v2h-2v2h2v2h-4zm5-4h-26c-1.654 0-3 1.346-3 3v7h-2v-12h2v-6h-28v6h2v30h-4v6h2v20h52v-32h2v-4h3c1.654 0 3-1.346 3-3v-12c0-1.654-1.346-3-3-3zm-28.816 16h-6.184v-4h6v3c0 .352.072.686.184 1zm-12.184 0v2h-8v-4h12v2zm-14-22h24v2h-24zm2 4h20v12h-4v2h-14v8h10v2h2v6h-14zm-4 32h18v2h-18zm2 4h16v18h-16zm40 12h-6v-4h6zm0 2v4h-6v-4zm-6-8v-4h5.92c.047.328.08.66.08 1v3zm0-6v-3.92c2.352.339 4.326 1.848 5.315 3.92zm-2 0h-5.315c.989-2.072 2.963-3.581 5.315-3.92zm-6 3c0-.34.033-.672.08-1h5.92v4h-6zm0 5h6v4h-6zm0 6h6v4h-6zm22 4h-6v-15c0-4.963-4.037-9-9-9s-9 4.037-9 9v15h-6v-30h30zm2-32h-34v-2h13 21zm6-5c0 .551-.448 1-1 1h-3-23c-.552 0-1-.449-1-1v-12c0-.551.448-1 1-1h26c.552 0 1 .449 1 1z" fill="url(#SVGID_1_)"/></svg>