<svg id="Layer_5" enable-background="new 0 0 64 64" height="512" viewBox="0 0 64 64" width="512" xmlns="http://www.w3.org/2000/svg" xmlns:xlink="http://www.w3.org/1999/xlink"><linearGradient id="SVGID_1_" gradientUnits="userSpaceOnUse" x1="32" x2="32" y1="63" y2="1.034"><stop offset="0" stop-color="#9f2fff"/><stop offset="1" stop-color="#0bb1d3"/></linearGradient><path d="m58 23h-11.817l-3.429-12h-5.914c-.164-.517-.449-.993-.86-1.362l-8.565-7.693c-1.318-1.217-3.521-1.207-4.816-.01l-8.577 7.703c-.411.369-.696.845-.86 1.362h-5.916l-4.572 16h2.326v16h-4v14h22v1c0 2.757 2.243 5 5 5h22c2.757 0 5-2.243 5-5v-23h8v-7c0-2.757-2.243-5-5-5zm-42.644-11.874 8.589-7.713c.574-.533 1.523-.543 2.121.01l8.577 7.703c.227.203.357.494.357.799 0 .593-.482 1.075-1.086 1.075-.271 0-.53-.101-.729-.284l-8.185-7.557-8.186 7.557c-.198.183-.457.284-.739.284-.593 0-1.075-.482-1.075-1.075 0-.305.13-.596.356-.799zm11.644 9.874h-4v-4h4zm-6-6v6h-2v-7.58l6-5.538 6 5.538v7.58h-2v-6zm-12.246-2h4.451c.439 1.165 1.557 2 2.881 2 .315 0 .62-.059.914-.151v8.151h16v-8.152c.297.092.605.152.925.152 1.316 0 2.432-.835 2.871-2h4.451l2.857 10h-8.104c-1.627 0-3.061.793-3.974 2h-26.7zm22.246 24h-6v-6h6zm.101-10c-.066.323-.101.658-.101 1v1h-8v10h8v8h-10v-9c0-2.757-2.243-5-5-5h-2c-2.757 0-5 2.243-5 5v9h-2v-20zm-12.101 20h-8v-9c0-1.654 1.346-3 3-3h2c1.654 0 3 1.346 3 3zm4 6v2h-20v-10h2v4h26v4zm5 8c-1.654 0-3-1.346-3-3v-3h20v3c0 1.125.373 2.164 1.002 3zm25-33v30c0 1.654-1.346 3-3 3s-3-1.346-3-3v-5h-14v-25c0-1.654 1.346-3 3-3h18.026c-.635.838-1.026 1.87-1.026 3zm8 5h-6v-5c0-1.654 1.346-3 3-3s3 1.346 3 3zm-52.555-12.198 1.924.551-.55 1.923-1.924-.551zm1.099-3.846 1.924.549-.55 1.924-1.924-.549zm40.749 17.337-2.395 2.395c-1.356-1.054-3.052-1.688-4.898-1.688-4.411 0-8 3.589-8 8 0 1.846.634 3.542 1.688 4.898l-2.395 2.395 1.414 1.414 2.395-2.395c1.356 1.054 3.052 1.688 4.898 1.688 4.411 0 8-3.589 8-8 0-1.846-.634-3.542-1.688-4.898l2.395-2.395zm-13.293 8.707c0-3.309 2.691-6 6-6 1.294 0 2.49.416 3.471 1.115l-8.356 8.356c-.699-.981-1.115-2.177-1.115-3.471zm12 0c0 3.309-2.691 6-6 6-1.294 0-2.49-.416-3.471-1.115l8.356-8.356c.699.981 1.115 2.177 1.115 3.471zm2-14h-16v-2h16zm-14 4h-2v-2h2zm2 0v-2h12v2zm-8 24h2v2h-2zm-4 0h2v2h-2zm8 0h2v2h-2zm-26-6h2v2h-2zm4 0h2v2h-2zm-8 0h2v2h-2z" fill="url(#SVGID_1_)"/></svg>