<svg id="Layer_5" enable-background="new 0 0 64 64" height="512" viewBox="0 0 64 64" width="512" xmlns="http://www.w3.org/2000/svg" xmlns:xlink="http://www.w3.org/1999/xlink"><linearGradient id="SVGID_1_" gradientUnits="userSpaceOnUse" x1="32" x2="32" y1="63" y2="1"><stop offset="0" stop-color="#9f2fff"/><stop offset="1" stop-color="#0bb1d3"/></linearGradient><path d="m53 41h-11.995c0-.06-.005-.12-.005-.181v-7.819h4.781l3.5-14h-4.281v-4h-4v-4h-6v-7c0-1.654-1.346-3-3-3s-3 1.346-3 3v7h-6v4h-4v4h-4.281l3.5 14h4.781v7.819c0 .06-.005.12-.005.181h-11.995v6.323l-10 4v11.677h62v-11.677l-10-4zm-40 6h9.565c-.657 4.85-2.075 9.596-4.203 14h-5.362zm12-6.181v-1.819h2v22h-6.434c2.893-6.307 4.434-13.244 4.434-20.181zm10 16.181h-6v-2h6zm0-4h-6v-2h6zm0-4h-6v-2h6zm0-4h-6v-2h6zm0-4h-6v-2h6zm-6 18h6v2h-6zm8-20h2v1.819c0 6.937 1.541 13.874 4.434 20.181h-6.434zm4.435 8h9.565v14h-5.362c-2.128-4.404-3.546-9.15-4.203-14zm9.565-4v2h-9.789c-.061-.666-.115-1.332-.147-2zm-10-12h-2v-6h2zm-2-16h-2v-2h2zm-10 0v-2h2v2zm4-2h2v2h-2zm-2-9c0-.552.448-1 1-1s1 .448 1 1v7h-2zm-6 9h2v2h-2zm-4 4h22v2h-22zm-3.719 4h29.438l-2.5 10h-1.219v-8h-6v8h-2v-8h-6v8h-2v-8h-6v8h-1.219zm15.719 10h-2v-6h2zm-8 0h-2v-6h2zm14 2v4h-14v-4zm-16.064 10c-.032.668-.086 1.334-.147 2h-9.789v-2zm-19.936 9.677 8-3.2v11.523h-8zm58 0v8.323h-8v-11.523zm-6.343-33.334 1.414-1.414c3.899 3.899 3.899 10.243 0 14.143l-1.414-1.414c3.119-3.12 3.119-8.196 0-11.315zm-2.829 8.485c.756-.756 1.172-1.76 1.172-2.828s-.416-2.072-1.172-2.828l1.414-1.414c1.134 1.133 1.758 2.639 1.758 4.242s-.624 3.109-1.758 4.242zm-43.899-9.899 1.414 1.414c-3.119 3.119-3.119 8.195 0 11.314l-1.414 1.414c-3.9-3.899-3.9-10.243 0-14.142zm4.243 4.243c-.756.756-1.172 1.76-1.172 2.828s.416 2.072 1.172 2.828l-1.414 1.414c-1.134-1.133-1.758-2.639-1.758-4.242s.624-3.109 1.758-4.242z" fill="url(#SVGID_1_)"/></svg>