<svg id="Layer_5" enable-background="new 0 0 64 64" height="512" viewBox="0 0 64 64" width="512" xmlns="http://www.w3.org/2000/svg" xmlns:xlink="http://www.w3.org/1999/xlink"><linearGradient id="SVGID_1_" gradientUnits="userSpaceOnUse" x1="32" x2="32" y1="63" y2="1"><stop offset="0" stop-color="#9f2fff"/><stop offset="1" stop-color="#0bb1d3"/></linearGradient><path d="m7 13h12v-6h-12zm2-4h8v2h-8zm-2 12h12v-6h-12zm2-4h8v2h-8zm-2 12h12v-6h-12zm2-4h8v2h-8zm-2 12h12v-6h-12zm2-4h8v2h-8zm-2 12h12v-6h-12zm2-4h8v2h-8zm46-26h-2v-4h-5v-6h-2v6h-4v-4h-2v4h-5v4h-2v16.22l-8 1.999v13.781h-2v-38.354c0-2.002-1.345-3.785-3.271-4.336l-10.984-3.137c-.404-.115-.82-.173-1.236-.173-2.487 0-4.509 2.022-4.509 4.509v41.491h-2v16h62v-29.781l-8-1.999zm-18-2h14v2h-14zm16 4v44h-4v-5c0-2.757-2.243-5-5-5s-5 2.243-5 5v5h-4v-44zm-6 44h-6v-5c0-1.654 1.346-3 3-3s3 1.346 3 3zm-14-27.72v27.72h-6v-26.219zm-28-27.771c0-1.384 1.125-2.509 2.509-2.509.231 0 .465.032.689.097l10.982 3.138c1.072.305 1.82 1.297 1.82 2.411v38.354h-16zm20 43.491v2h-22v-2zm-22 4h22v8h-2v-6h-8v6h-2v-6h-8v6h-2zm18 8h-4v-4h4zm-10 0h-4v-4h4zm50-26.219v26.219h-6v-27.72zm-2 10.219h-2v-2h2zm0 4h-2v-2h2zm0-12h-2v-2h2zm0 4h-2v-2h2zm0 12h-2v-2h2zm-2 4v-2h2v2zm-26-12h-2v-2h2zm0-4h-2v-2h2zm0-4h-2v-2h2zm0 12h-2v-2h2zm0 4h-2v-2h2zm0 4h-2v-2h2zm20-38h-14v6h14zm-12 2h4v2h-4zm10 2h-4v-2h4zm2 4h-14v6h14zm-12 2h4v2h-4zm10 2h-4v-2h4zm2 4h-14v6h14zm-12 2h4v2h-4zm10 2h-4v-2h4zm2 4h-14v6h14zm-12 2h4v2h-4zm10 2h-4v-2h4z" fill="url(#SVGID_1_)"/></svg>