<svg id="Layer_5" enable-background="new 0 0 64 64" height="512" viewBox="0 0 64 64" width="512" xmlns="http://www.w3.org/2000/svg" xmlns:xlink="http://www.w3.org/1999/xlink"><linearGradient id="SVGID_1_" gradientUnits="userSpaceOnUse" x1="32" x2="32" y1="63" y2="1"><stop offset="0" stop-color="#9f2fff"/><stop offset="1" stop-color="#0bb1d3"/></linearGradient><path d="m59 1h-16v4h-4v26h-2v-4h-10v4h-2v-26h-4v-4h-16v4h-4v58h62v-58h-4zm-14 2h12v2h-12zm-16 26h6v2h-6zm-22-26h12v2h-12zm-2 4h16 2v2h-20v-2zm12 42v12h-8v-12zm2 12v-12h2v-2h-16v2h2v12h-4v-50h20v50zm16 0h-6v-10h6zm2 0v-12h-10v12h-2v-28h14v28zm18-12v12h-8v-12zm2 12v-12h2v-2h-16v2h2v12h-4v-50h20v50zm4-54v2h-20v-2h2 16zm-18 12h16v-6h-16zm2-4h12v2h-12zm-2 12h16v-6h-16zm2-4h12v2h-12zm-2 12h16v-6h-16zm2-4h12v2h-12zm-2 12h16v-6h-16zm2-4h12v2h-12zm-40-20h16v-6h-16zm2-4h12v2h-12zm-2 12h16v-6h-16zm2-4h12v2h-12zm-2 12h16v-6h-16zm2-4h12v2h-12zm-2 12h16v-6h-16zm2-4h12v2h-12zm28-4h2v2h-2zm-8 0h2v2h-2zm4 0h2v2h-2zm-4 4h2v2h-2zm4 0h2v2h-2zm4 0h2v2h-2zm-4 4h2v2h-2zm-4 0h2v2h-2zm8 0h2v2h-2z" fill="url(#SVGID_1_)"/></svg>