<svg id="Layer_5" enable-background="new 0 0 64 64" height="512" viewBox="0 0 64 64" width="512" xmlns="http://www.w3.org/2000/svg" xmlns:xlink="http://www.w3.org/1999/xlink"><linearGradient id="SVGID_1_" gradientUnits="userSpaceOnUse" x1="32" x2="32" y1="63" y2="1"><stop offset="0" stop-color="#9f2fff"/><stop offset="1" stop-color="#0bb1d3"/></linearGradient><path d="m55 9v-5c0-1.654-1.346-3-3-3h-10c-1.654 0-3 1.346-3 3v5h-6v-4h-32v20h2v38h8v-8h12v8h8v-38h2v-4h6v4h5v8h-4v10h14v-10h-4v-8h5v-4h8v-12zm-7.238 2h6.475l-3.237 2.698zm1.676 4-4.438 3.698-4.438-3.698 4.438-3.698zm-10.438-1.302-3.238-2.698h6.475zm-6-2.396 4.438 3.698-4.438 3.698zm6 5 3.238 2.698h-6.475zm12 0 3.238 2.698h-6.475zm1.562-1.302 4.438-3.698v7.396zm-11.562-11c0-.551.448-1 1-1h10c.552 0 1 .449 1 1v5h-12zm-10 13h-4v-4h4zm-28 0v-4h4v4zm6-4h4v4h-4zm6 0h4v4h-4zm6 0h4v4h-4zm10-6v2 2h-28v-4zm-26 54v-36h4v36zm8.121-18 3.879-2.771 3.879 2.771zm7.758 2-3.879 2.771-3.879-2.771zm-9.879-2.943v-6.113l4.279 3.056zm2.121-7.057h7.759l-3.88 2.771zm0-2 3.879-2.771 3.879 2.771zm-2.121-.943v-6.113l4.279 3.056zm0 13.886 4.279 3.057-4.279 3.057zm6 4.286 3.879 2.771h-7.759zm1.721-1.229 4.279-3.057v6.113zm0-10 4.279-3.057v6.113zm0-10 4.279-3.057v6.113zm-1.721-1.229-3.879-2.771h7.759zm12 33.229h-4v-36h4zm2-38h-28v-4h28v2zm21 18h-10v-6h10zm-4-8h-2v-8h2zm5-10h-12v-2h12zm8-4h-2v-8h2zm-28 44h30v-18h-30zm20-2h-10v-6h10zm-18-14h26v14h-6v-8h-14v8h-6zm16 4h-2v-2h2zm-4 0h-2v-2h2zm-8-2v2h-2v-2zm4 2h-2v-2h2zm12 0h-2v-2h2zm4 0h-2v-2h2zm-15-46h2v2h-2zm4 0h2v2h-2z" fill="url(#SVGID_1_)"/></svg>