<svg id="Layer_5" enable-background="new 0 0 64 64" height="512" viewBox="0 0 64 64" width="512" xmlns="http://www.w3.org/2000/svg" xmlns:xlink="http://www.w3.org/1999/xlink"><linearGradient id="SVGID_1_" gradientUnits="userSpaceOnUse" x1="32" x2="32" y1="63" y2="1.029"><stop offset="0" stop-color="#9f2fff"/><stop offset="1" stop-color="#0bb1d3"/></linearGradient><path d="m23 55h-2v-2h2zm0 2h-2v2h2zm20-6.693c0-1.728.656-3.367 1.847-4.617l-1.448-1.379c-1.547 1.623-2.399 3.752-2.399 5.996 0 1.047.185 2.071.55 3.044l1.873-.701c-.281-.75-.423-1.538-.423-2.343zm1.393 4.082-1.583 1.223c.457.592.988 1.123 1.578 1.578l1.223-1.582c-.456-.353-.865-.762-1.218-1.219zm8.607 1.611c0 1.654-1.346 3-3 3s-3-1.346-3-3 1.346-3 3-3 3 1.346 3 3zm-2 0c0-.552-.449-1-1-1s-1 .448-1 1 .449 1 1 1 1-.448 1-1zm2-12.153c0 .158-.013.314-.039.468l-.811 4.863c-.176 1.056-1.08 1.822-2.15 1.822s-1.974-.766-2.151-1.821l-.811-4.864c-.025-.154-.038-.31-.038-.468 0-1.57 1.277-2.847 2.847-2.847h.306c1.57 0 2.847 1.277 2.847 2.847zm-2 0c0-.467-.38-.847-.847-.847h-.306c-.467 0-.847.38-.847.847 0 .047.004.094.011.14l.811 4.863c.029.174.327.175.356-.001l.811-4.862c.007-.047.011-.093.011-.14zm-15.243-23.829 1.302 1.518 1.519-1.302-1.302-1.518zm3.036-2.603 1.302 1.518 1.519-1.302-1.302-1.518zm3.038-2.603 1.302 1.518 1.519-1.302-1.302-1.518zm16.169 7.032v7.156h2.804l-5.505 8.808 3.366 2.945c2.755 2.411 4.335 5.893 4.335 9.554 0 6.999-5.694 12.693-12.694 12.693h-.612c-3.365 0-6.42-1.325-8.694-3.469v3.469h-38v-6h-2v-1c0-4.562 3.057-8.646 7.433-9.935l9.567-2.813v-2.405c-1.324-1.067-2.428-2.377-3.261-3.847h-1.739c-2.206 0-4-1.794-4-4v-7c0-7.168 5.832-13 13-13 1.998 0 3.884.466 5.577 1.275l14.011-12.364c1.335-1.176 3.489-1.176 4.823 0l15.318 13.516c.808.714 1.271 1.74 1.271 2.817 0 2.071-1.685 3.756-3.756 3.756h-.224c-.349 0-.689-.062-1.02-.156zm-2 7.337v-8.577l-12-10.287-10.743 9.208c1.102 1.91 1.743 4.117 1.743 6.475v7c0 2.206-1.794 4-4 4h-1.739c-.833 1.47-1.937 2.78-3.261 3.847v2.405l9.567 2.813c.672.198 1.314.468 1.928.794.662-2.34 1.972-4.472 3.839-6.107l3.366-2.945-5.504-8.807h3.804c1.328 0 2.034.808 2.501 1.342.435.497.608.658.996.658s.561-.161.996-.658c.466-.534 1.173-1.342 2.501-1.342 1.329 0 2.036.807 2.504 1.341.436.498.609.659.999.659s.563-.161.999-.659c.333-.38.792-.893 1.504-1.16zm-32.586 18.819 3.005 3.005 1.157-5.205-1.515-.446zm6.769-13h.817c1.103 0 2-.897 2-2s-.897-2-2-2h-.021c-.058 1.385-.332 2.731-.796 4zm-.778-19.671c1.023.712 1.938 1.565 2.718 2.534l11.877-10.18 13.877 11.896c.318.271.724.421 1.143.421h.224c.968 0 1.756-.788 1.756-1.756 0-.504-.217-.984-.595-1.317l-15.317-13.516c-.602-.529-1.575-.529-2.177 0zm-18.405 10.671v3.556c.591-.344 1.268-.556 2-.556v-.586c0-1.179.459-2.287 1.292-3.121s1.942-1.293 3.122-1.293h1.919l.267.2c2.408 1.806 5.391 2.8 8.4 2.8h3v2c.732 0 1.409.212 2 .556v-3.556c0-6.065-4.935-11-11-11s-11 4.935-11 11zm2.817 9c-.464-1.269-.738-2.615-.796-4h-.021c-1.103 0-2 .897-2 2s.897 2 2 2zm8.183 5.925c4.203-1.739 7-5.899 7-10.469v-1.456h-1c-3.326 0-6.625-1.063-9.327-3h-1.259c-.645 0-1.251.251-1.707.707s-.707 1.063-.707 1.707v2.042c0 4.569 2.797 8.73 7 10.469zm-2 1.252v2.409l2 2 2-2v-2.409c-.529.287-1.076.545-1.649.76l-.351.131-.351-.132c-.573-.214-1.12-.472-1.649-.759zm-2.061 3.177-1.515.446 1.157 5.205 3.005-3.005zm-14.878 9.646h5.939v-4h2v10h22v-10h2v4h2.91c-.581-1.454-.91-3.035-.91-4.693 0-.458.025-.914.074-1.364-.647-.406-1.334-.741-2.071-.959l-5.504-1.618-1.918 8.63-5.581-5.582-5.581 5.581-1.918-8.63-5.504 1.618c-3.207.945-5.537 3.751-5.936 7.017zm1.939 6h4v-4h-4zm34 0v-3.882c-.025-.039-.047-.079-.072-.118h-3.928v4zm18.348-18.741-3.723-3.259h-7.249l-3.724 3.259c-2.321 2.03-3.652 4.964-3.652 8.048 0 5.896 4.797 10.693 10.694 10.693h.612c5.897 0 10.694-4.797 10.694-10.693 0-3.084-1.331-6.018-3.652-8.048zm-.152-11.259h-.196c-.39 0-.563.161-.999.659-.468.534-1.175 1.341-2.504 1.341s-2.036-.807-2.504-1.341c-.436-.498-.609-.659-.999-.659-.388 0-.561.161-.996.658-.467.534-1.173 1.342-2.501 1.342-1.329 0-2.034-.808-2.501-1.342-.435-.497-.609-.658-.996-.658h-.196l3.75 6h6.891z" fill="url(#SVGID_1_)"/></svg>