<svg id="Layer_5" enable-background="new 0 0 64 64" height="512" viewBox="0 0 64 64" width="512" xmlns="http://www.w3.org/2000/svg" xmlns:xlink="http://www.w3.org/1999/xlink"><linearGradient id="SVGID_1_" gradientUnits="userSpaceOnUse" x1="32" x2="32" y1="63" y2="1.011"><stop offset="0" stop-color="#9f2fff"/><stop offset="1" stop-color="#0bb1d3"/></linearGradient><path d="m24 13h2v2h-2zm-4 2h2v-2h-2zm-4 0h2v-2h-2zm26 0h2v-2h-2zm4-2v2h2v-2zm-8 2h2v-2h-2zm25 18v4c0 1.103-.897 2-2 2v24h-58v-24c-1.103 0-2-.897-2-2v-4c0-1.103.897-2 2-2h2v-12h-2v-2.588l26.64-14.8c1.439-.801 3.28-.801 4.72 0l26.64 14.8v2.588h-2v12h2c1.103 0 2 .897 2 2zm-6-14h-21v12h21zm-27 0v12h4v-12zm-23.941-2h51.882l-24.553-13.64c-.847-.471-1.93-.471-2.776 0zm.941 14h21v-12h-21zm-2 30h4v-22h-4zm34 0h6v-16h-6zm8 0h6v-16h-6zm6-22h-14v4h14zm-16 0h-6v22h6zm-8 0h-18v22h18zm30 0h-4v22h4zm2.001-2-.001-4h-58v4zm-48.001 18v-10h6v10zm2-2h2v-6h-2zm12 2h-6v-10h6zm-2-8h-2v6h2zm13-18v-8h17v8zm2-2h13v-4h-13zm-14-6v8h-17v-8zm-2 2h-13v4h13zm11 28v-2h-2v2zm0-6h-2v2h2zm0-4h-2v2h2z" fill="url(#SVGID_1_)"/></svg>