<svg id="Layer_5" enable-background="new 0 0 64 64" height="512" viewBox="0 0 64 64" width="512" xmlns="http://www.w3.org/2000/svg" xmlns:xlink="http://www.w3.org/1999/xlink"><linearGradient id="SVGID_1_" gradientUnits="userSpaceOnUse" x1="32" x2="32" y1="63" y2="1.013"><stop offset="0" stop-color="#9f2fff"/><stop offset="1" stop-color="#0bb1d3"/></linearGradient><path d="m46.492 22.859-1.718-1.024 1.023-1.718 1.718 1.024zm-2.413-3.765-1.718-1.024-1.023 1.718 1.718 1.024zm-3.436-2.048-1.718-1.024-1.023 1.718 1.718 1.024zm-29.155 7.073 1.023 1.718 2-1.192-1.023-1.718zm15.024-6.624-1.023-1.718-11 6.554 1.023 1.718zm-18.512 33.396v-27.022l-.958.571c-.619.367-1.324.56-2.041.56-1.406 0-2.725-.751-3.442-1.96-.544-.917-.698-1.994-.433-3.03s.917-1.907 1.834-2.451l26.669-15.906c1.432-.854 3.31-.854 4.743 0l14.628 8.725v-6.378h8v11.15l4.042 2.41c.916.543 1.568 1.414 1.833 2.45s.111 2.112-.434 3.03c-.717 1.209-2.035 1.96-3.441 1.96-.717 0-1.422-.193-2.039-.559l-.961-.572v34.131 1 4h-36v-3h-10.709l-1.74 1.823c-.714.748-1.717 1.177-2.75 1.177-2.096 0-3.801-1.705-3.801-3.801 0-1.033.429-2.036 1.177-2.75zm17.602-10.875-1.619-1.619-20.425 19.499c-.355.338-.558.813-.558 1.303 0 .993.808 1.801 1.801 1.801.49 0 .965-.203 1.303-.558zm3.984-18.016-.586-.586c-.263-.263-.628-.414-1-.414s-.737.151-1 .414l-9.586 9.586c-.263.263-.414.628-.414 1s.151.737.414 1l.586.586zm-8.172 11 9.586 9.586 7.586-7.586-9.586-9.586zm28.586 19c0-1.654-1.346-3-3-3h-18c-1.654 0-3 1.346-3 3v1h24zm-17-5.414 9.586-9.586c.263-.263.414-.628.414-1s-.151-.737-.414-1l-.586-.586-11.586 11.586.586.586c.526.526 1.474.526 2 0zm-9 6.515v-1.101c0-2.628 2.045-4.766 4.624-4.962l-1.038-1.038 2-2-2.569-2.569-15.817 16.569h8.8c0-2.414 1.721-4.434 4-4.899zm30 5.899v-1c0-1.654-1.346-3-3-3h-26c-1.654 0-3 1.346-3 3v3h32zm-3-47.429 4 2.386v-7.957h-4zm-21.37-2.918c.716-.427 1.536-.653 2.37-.653s1.654.226 2.371.653l23.61 14.069c.909.539 2.198.211 2.739-.702.272-.458.349-.997.216-1.515-.133-.519-.458-.954-.917-1.226l-26.672-15.908c-.813-.485-1.88-.485-2.693 0l-26.671 15.907c-.461.273-.787.709-.919 1.228-.132.518-.056 1.056.216 1.514.542.913 1.827 1.243 2.741.701zm-19.63 40.329 12.569-11.998-2.569-2.57-2 2-2-2c-.645-.645-1-1.502-1-2.414s.355-1.77 1-2.414l9.586-9.586c1.289-1.29 3.539-1.29 4.828 0l2 2-2 2 9.586 9.586 2-2 2 2c.645.645 1 1.502 1 2.414s-.355 1.77-1 2.414l-8.586 8.586h11.586c2.757 0 5 2.243 5 5v1.101c.743.152 1.416.482 2 .924v-31.348l-20.652-12.306c-.814-.484-1.88-.484-2.694 0l-20.654 12.306zm32 10.018h2v-2h-2zm8 0h2v-2h-2zm-4 0h2v-2h-2zm6-15h-2v2h2zm0-8h-2v2h2zm0 4h-2v2h2z" fill="url(#SVGID_1_)"/></svg>