<svg id="Layer_5" enable-background="new 0 0 64 64" height="512" viewBox="0 0 64 64" width="512" xmlns="http://www.w3.org/2000/svg" xmlns:xlink="http://www.w3.org/1999/xlink"><linearGradient id="SVGID_1_" gradientUnits="userSpaceOnUse" x1="32" x2="32" y1="63" y2="1.03"><stop offset="0" stop-color="#9f2fff"/><stop offset="1" stop-color="#0bb1d3"/></linearGradient><path d="m61 55c0-6.199-4.053-11.462-9.646-13.298 2.191-1.428 3.646-3.897 3.646-6.702 0-4.411-3.589-8-8-8-1.061 0-2.073.212-3 .589v-5.745c.331.094.671.156 1.02.156h.225c2.07 0 3.755-1.685 3.755-3.756 0-1.077-.463-2.104-1.271-2.816l-15.318-13.516c-1.332-1.176-3.489-1.176-4.823 0l-15.317 13.515c-.808.713-1.271 1.74-1.271 2.817 0 2.071 1.685 3.756 3.756 3.756h.225c.349 0 .689-.062 1.02-.156v5.745c-.928-.377-1.94-.589-3.001-.589-4.411 0-8 3.589-8 8 0 2.709 1.357 5.103 3.422 6.551-4.304 1.425-7.422 5.481-7.422 10.258v11.191h27.055 3.445 31.5v-6h-2zm-2 0v2h-4v-6h-2v6h-8v-4.586l7.87-7.87c3.653 2.06 6.13 5.972 6.13 10.456zm-20-4v6h-4v-2c0-4.484 2.477-8.396 6.13-10.456l4.456 4.456-2.586 2.586v5.414h-2v-6zm11.917-7.331-3.917 3.917-3.917-3.917c1.23-.426 2.544-.669 3.917-.669s2.687.243 3.917.669zm2.083-8.669c0 3.309-2.691 6-6 6s-6-2.691-6-6 2.691-6 6-6 6 2.691 6 6zm-38.244-15c-.968 0-1.756-.788-1.756-1.756 0-.503.217-.983.595-1.316l15.316-13.516c.604-.531 1.575-.531 2.177 0l15.318 13.516c.377.332.594.812.594 1.316 0 .968-.788 1.756-1.756 1.756h-.224c-.419 0-.825-.15-1.144-.423l-13.876-11.894-13.876 11.894c-.318.273-.725.423-1.144.423zm3.244.603 12-10.286 12 10.286v8.162c-1.826 1.468-3 3.715-3 6.235 0 2.805 1.455 5.274 3.646 6.702-5.593 1.836-9.646 7.099-9.646 13.298v1.351c-.456-.218-.961-.351-1.5-.351l-8.585.025-.32-4.918c-.257-3.955-2.644-7.306-5.992-8.974 2.604-1.321 4.397-4.018 4.397-7.133 0-2.52-1.174-4.768-3-6.235zm-11 14.397c0-3.309 2.691-6 6-6s6 2.691 6 6-2.691 6-6 6-6-2.691-6-6zm21.055 26h-8.374c-1.548 0-2.861-1.208-2.99-2.751l-.694-8.332-1.992.166.694 8.332c.08.966.439 1.854.993 2.585h-12.692v-9.191c0-4.857 3.951-8.809 8.809-8.809 4.629 0 8.49 3.618 8.79 8.237l.322 4.944c.095 1.037.951 1.819 1.992 1.819h8.587c.827 0 1.5.673 1.5 1.5s-.673 1.5-1.5 1.5zm32.945 0h-26.351c.218-.456.351-.961.351-1.5 0-.171-.027-.335-.051-.5h26.051zm-14-8h2v2h-2zm-21.868-22.496 8-14 1.736.992-8 14zm6.868-4.504c0 1.654 1.346 3 3 3s3-1.346 3-3-1.346-3-3-3-3 1.346-3 3zm3-1c.552 0 1 .449 1 1s-.448 1-1 1-1-.449-1-1 .448-1 1-1zm-10 0c1.654 0 3-1.346 3-3s-1.346-3-3-3-3 1.346-3 3 1.346 3 3 3zm0-4c.552 0 1 .449 1 1s-.448 1-1 1-1-.449-1-1 .448-1 1-1zm-2 12h14v2h-14zm0 4h14v2h-14zm12 4h2v2h-2zm-4 0h2v2h-2zm-8 0h6v2h-6z" fill="url(#SVGID_1_)"/></svg>