<svg id="Layer_5" enable-background="new 0 0 64 64" height="512" viewBox="0 0 64 64" width="512" xmlns="http://www.w3.org/2000/svg" xmlns:xlink="http://www.w3.org/1999/xlink"><linearGradient id="SVGID_1_" gradientUnits="userSpaceOnUse" x1="32" x2="32" y1="63" y2="1.013"><stop offset="0" stop-color="#9f2fff"/><stop offset="1" stop-color="#0bb1d3"/></linearGradient><path d="m57.154 37.928 5.464-10.928h-3.618c-.846 0-1.486.319-2 .759v-3.298c.608.351 1.297.539 1.999.539 1.406 0 2.725-.751 3.441-1.96.544-.918.699-1.994.434-3.03s-.917-1.907-1.833-2.45l-4.041-2.41v-11.15h-8v6.378l-14.628-8.725c-1.433-.854-3.311-.854-4.743 0l-26.669 15.906c-.918.544-1.57 1.415-1.834 2.451-.265 1.036-.111 2.112.433 3.03.717 1.209 2.035 1.96 3.441 1.96.701 0 1.391-.188 2-.54v38.54h40.514 1.486 1.486c6.9 0 12.514-5.613 12.514-12.514 0-2.479-.727-4.879-2.102-6.941zm1.846-8.928h.382l-4 8h-12.764l-4-8h.382c.628 0 .985.466 1.649 1.53.651 1.042 1.543 2.47 3.346 2.47 1.804 0 2.696-1.428 3.348-2.47.665-1.064 1.022-1.53 1.652-1.53s.988.466 1.653 1.53c.652 1.042 1.545 2.47 3.35 2.47s2.697-1.427 3.349-2.47c.665-1.064 1.022-1.53 1.653-1.53zm-8-23h4v7.957l-4-2.386zm-47.721 16.02c-.271-.458-.348-.996-.216-1.514.133-.519.458-.954.919-1.228l26.672-15.907c.812-.485 1.879-.485 2.693 0l26.672 15.908c.459.272.785.708.917 1.226s.056 1.056-.216 1.515c-.541.913-1.829 1.24-2.739.702l-23.61-14.069c-.717-.427-1.537-.653-2.371-.653s-1.654.226-2.371.653l-23.609 14.067c-.915.542-2.2.213-2.741-.7zm11.721 30.2c.532.48 1.229.78 2 .78 1.654 0 3-1.346 3-3s-1.346-3-3-3c-.771 0-1.468.301-2 .78v-10.78h16v24h-16zm1-2.22c0-.552.449-1 1-1s1 .448 1 1-.449 1-1 1-1-.448-1-1zm17 11v-26h-20v26h-4v-37.727l21.653-12.902c.813-.484 1.879-.484 2.694 0l21.653 12.902v7.13c-.32.391-.611.597-1.003.597-.631 0-.988-.466-1.654-1.53-.651-1.043-1.544-2.47-3.348-2.47s-2.697 1.428-3.348 2.47c-.665 1.064-1.022 1.53-1.652 1.53-.628 0-.985-.466-1.649-1.53-.651-1.042-1.543-2.47-3.346-2.47h-3.618l5.464 10.928-3.744 5.617c-1.375 2.062-2.102 4.463-2.102 6.941 0 4.409 2.298 8.284 5.752 10.514zm17.486 0h-1.486-1.486c-5.798 0-10.514-4.717-10.514-10.514 0-2.082.61-4.099 1.766-5.832l3.769-5.654h12.93l3.77 5.654c1.155 1.734 1.765 3.75 1.765 5.832 0 5.797-4.716 10.514-10.514 10.514zm-3.486-16v2c0 1.103.897 2 2 2 2.206 0 4 1.794 4 4v4h-3v2h-2v-2.142c-1.72-.447-3-1.999-3-3.858h2c0 1.103.897 2 2 2h2v-2c0-1.103-.897-2-2-2-2.206 0-4-1.794-4-4v-4h3v-2h2v2.142c1.72.447 3 1.999 3 3.858h-2c0-1.103-.897-2-2-2zm-27.512-25.648 1.023 1.718-9 5.362-1.023-1.718zm4-2.384 1.023 1.718-2 1.192-1.023-1.718zm25.564 7.417-1.718-1.024 1.023-1.718 1.718 1.024zm-3.436-2.048-1.718-1.023 1.023-1.718 1.718 1.023zm6.872 4.096-1.718-1.024 1.023-1.718 1.718 1.024zm-20.488-12.433c-2.206 0-4 1.794-4 4s1.794 4 4 4 4-1.794 4-4-1.794-4-4-4zm0 6c-1.103 0-2-.897-2-2s.897-2 2-2 2 .897 2 2-.897 2-2 2zm-15 19v6h12v-6zm10 4h-8v-2h8z" fill="url(#SVGID_1_)"/></svg>