<svg id="Layer_5" enable-background="new 0 0 64 64" height="512" viewBox="0 0 64 64" width="512" xmlns="http://www.w3.org/2000/svg" xmlns:xlink="http://www.w3.org/1999/xlink"><linearGradient id="SVGID_1_" gradientUnits="userSpaceOnUse" x1="32" x2="32" y1="63" y2="1"><stop offset="0" stop-color="#9f2fff"/><stop offset="1" stop-color="#0bb1d3"/></linearGradient><path d="m56.187 50.975-2.187-1.094v-22.881c0-7.168-5.832-13-13-13-3.018 0-5.791 1.043-8 2.774v-10.774c0-2.757-2.243-5-5-5h-22c-2.757 0-5 2.243-5 5v18c0 2.757 2.243 5 5 5h6.586l5.293 5.294c.45.448 1.072.706 1.707.706 1.331 0 2.414-1.083 2.414-2.414v-3.586h6v20.881l-1.017.508c.004-.129.017-.259.017-.389 0-7.168-5.832-13-13-13s-13 5.832-13 13 5.832 13 13 13c1.725 0 3.424-.344 5-1v1h44v-1c0-4.699-2.611-8.924-6.813-11.025zm-10.082-5.04c-.682-.341-1.105-1.027-1.105-1.789v-1.299c1.324-1.067 2.428-2.377 3.261-3.847h1.739c.732 0 1.409-.212 2-.556v10.438zm-.723 15.065h-2.045l1.672-5.684 1.838 2.757zm-10.228-2.928 1.838-2.757 1.671 5.685h-2.045zm-3.133-25.072c.057 1.385.331 2.731.796 4h-.817c-1.103 0-2-.897-2-2s.897-2 2-2zm1.979-.544v-2.458c2.591-.055 5.037-.981 7-2.64 1.963 1.659 4.409 2.585 7 2.64v2.458c0 4.569-2.797 8.729-7 10.469-4.203-1.739-7-5.9-7-10.469zm15.979.544h.021c1.103 0 2 .897 2 2s-.897 2-2 2h-.817c.464-1.269.738-2.615.796-4zm-10.981 11.176c.529.287 1.078.546 1.651.761l.351.131.351-.132c.573-.215 1.122-.474 1.651-.761.011 1.495.836 2.835 2.162 3.52l-.971 3.305h-6.386l-.972-3.304c1.327-.685 2.152-2.025 2.163-3.52zm-3.979 4.433 1.634 5.555-2.75-.917-.544-3.808zm3.376 4.391h5.209l-2.353 8h-.503zm6.952 1.164 1.634-5.555 1.661.83-.544 3.808zm-4.347-38.164c6.065 0 11 4.935 11 11v4.556c-.591-.344-1.268-.556-2-.556v-3h-1.757c-2.469 0-4.79-.961-6.536-2.707l-.707-.707-.707.707c-1.746 1.746-4.067 2.707-6.536 2.707h-1.757v3c-.732 0-1.409.212-2 .556v-4.556c0-6.065 4.935-11 11-11zm-21 11v5.586c0 .337-.468.53-.707.293l-5.879-5.879h-7.414c-1.654 0-3-1.346-3-3v-18c0-1.654 1.346-3 3-3h22c1.654 0 3 1.346 3 3v12.705c-1.872 2.253-3 5.144-3 8.295zm10 11.444c.591.344 1.268.556 2 .556h1.739c.833 1.47 1.937 2.78 3.261 3.847v1.299c0 .763-.423 1.448-1.105 1.789l-5.895 2.947zm-16 22.556c-6.065 0-11-4.935-11-11s4.935-11 11-11 11 4.935 11 11c0 .501-.044.999-.111 1.492-2.984 1.821-5.016 4.778-5.662 8.166-1.601.867-3.392 1.342-5.227 1.342zm12.708-8.236 4.765-2.382.625 4.372 2.344.781-1.596 2.394 1.536 3.071h-5.382v-4h-2v4h-5.953c.337-3.528 2.441-6.626 5.661-8.236zm28.292 8.236v-4h-2v4h-5.382l1.536-3.072-1.596-2.394 2.344-.781.625-4.372 4.765 2.382c3.22 1.61 5.324 4.708 5.661 8.236h-5.953zm-48.625-47.781 1.249 1.562 1.376-1.101v11.32h16v-11.32l1.375 1.1 1.249-1.562-10.624-8.499zm12.625 9.781h-4v-6h4zm4 0h-2v-8h-8v8h-2v-10.919l6-4.8 6 4.8zm-11 22v2c0 1.103.897 2 2 2 2.206 0 4 1.794 4 4v4h-3v2h-2v-2.142c-1.72-.447-3-1.999-3-3.858h2c0 1.103.897 2 2 2h2v-2c0-1.103-.897-2-2-2-2.206 0-4-1.794-4-4v-4h3v-2h2v2.142c1.72.447 3 1.999 3 3.858h-2c0-1.103-.897-2-2-2z" fill="url(#SVGID_1_)"/></svg>