<svg id="Layer_5" enable-background="new 0 0 64 64" height="512" viewBox="0 0 64 64" width="512" xmlns="http://www.w3.org/2000/svg" xmlns:xlink="http://www.w3.org/1999/xlink"><linearGradient id="SVGID_1_" gradientUnits="userSpaceOnUse" x1="32" x2="32" y1="63" y2="1"><stop offset="0" stop-color="#9f2fff"/><stop offset="1" stop-color="#0bb1d3"/></linearGradient><path d="m23 7h-2v-2h2zm16-2h-14v2h14zm4 0h-2v2h2zm-20 26h-10v-8h10zm-2-6h-6v4h6zm16 6h-10v-8h10zm-2-6h-6v4h6zm16 6h-10v-8h10zm-2-6h-6v4h6zm12 36h2v2h-62v-2h2v-1c0-2.414 1.721-4.434 4-4.899v-36.101h-2c-1.103 0-2-.897-2-2v-2c0-1.103.897-2 2-2v-5c0-1.654 1.346-3 3-3h9v-1c0-1.654 1.346-3 3-3h24c1.654 0 3 1.346 3 3v1h9c1.654 0 3 1.346 3 3v5c1.103 0 2 .897 2 2v2c0 1.103-.897 2-2 2h-2v36.101c2.279.465 4 2.484 4 4.899zm-42-53c0 .551.449 1 1 1h24c.551 0 1-.449 1-1v-4c0-.551-.449-1-1-1h-24c-.551 0-1 .449-1 1zm-12 5h50v-5c0-.551-.449-1-1-1h-9v1c0 1.654-1.346 3-3 3h-24c-1.654 0-3-1.346-3-3v-1h-9c-.551 0-1 .449-1 1zm-2 4h54v-2h-54zm4 2v36h12v-18h-2v-2h26v2h-2v18h12v-36zm14 18v18h8v-4h-4v-10h4v-4zm8 6h-2v6h2zm2 6h2v-6h-2zm0 6h8v-18h-8v4h4v10h-4zm-28 6h54v-1c0-1.654-1.346-3-3-3h-48c-1.654 0-3 1.346-3 3zm40-20h8v10h-8zm2 8h4v-6h-4zm-36 2v-10h8v10zm2-2h4v-6h-4z" fill="url(#SVGID_1_)"/></svg>