<svg id="Layer_5" enable-background="new 0 0 64 64" height="512" viewBox="0 0 64 64" width="512" xmlns="http://www.w3.org/2000/svg" xmlns:xlink="http://www.w3.org/1999/xlink"><linearGradient id="SVGID_1_" gradientUnits="userSpaceOnUse" x1="32" x2="32" y1="63" y2="1"><stop offset="0" stop-color="#9f2fff"/><stop offset="1" stop-color="#0bb1d3"/></linearGradient><path d="m50.683 43.671c2.584-1.583 4.317-4.425 4.317-7.671 0-3.91-2.51-7.236-6-8.475v-20.525h-2v-1c0-1.654-1.346-3-3-3h-12c-1.654 0-3 1.346-3 3v1h-2v38h-1-1v-40h-2v-1c0-1.654-1.346-3-3-3h-12c-1.654 0-3 1.346-3 3v1h-2v40h-2v18h28 1 33v-3c0-7.748-5.216-14.289-12.317-16.329zm.317 17.329h-10v-2h10zm-12-4v4h-2v-12.972c.632-.477 1.296-.912 2-1.285v8.257h14v-8.257c.704.373 1.368.808 2 1.285v12.972h-2v-4zm2-8.549c.591.342 1.27.549 2 .549 1.201 0 2.266-.542 3-1.382.734.84 1.799 1.382 3 1.382.729 0 1.409-.207 2-.551v4.551h-10zm8-1.451c-1.085 0-1.967-.871-1.995-1.949 1.328.089 2.608.347 3.82.76-.312.702-1.013 1.189-1.825 1.189zm-6 0c-.814 0-1.514-.487-1.826-1.189 1.212-.414 2.492-.672 3.82-.76-.027 1.078-.909 1.949-1.994 1.949zm3-4c-3.859 0-7-3.141-7-7 0-.34.033-.672.08-1h.092c1.745 0 3.459-.6 4.828-1.668 1.369 1.068 3.083 1.668 4.828 1.668h4.092c.047.328.08.66.08 1 0 3.859-3.141 7-7 7zm6.315-10h-3.487c-1.534 0-3.036-.622-4.121-1.707l-.707-.707-.707.707c-.96.96-2.248 1.556-3.595 1.681 1.132-2.347 3.528-3.974 6.302-3.974 2.785 0 5.188 1.639 6.315 4zm-21.315-27c0-.552.448-1 1-1h12c.552 0 1 .448 1 1v1h-14zm-2 3h18v18.059c-.329-.037-.662-.059-1-.059-4.963 0-9 4.037-9 9 0 3.246 1.733 6.088 4.317 7.671-1.16.333-2.272.777-3.317 1.337v-.008h-9zm-22-5c0-.552.448-1 1-1h12c.552 0 1 .448 1 1v1h-14zm-2 3h18v38h-18zm20 40v2h-22v-2zm-14 14h-4v-6h4zm10 0h-4v-6h4zm2 0v-8h-8v8h-2v-8h-8v8h-2v-10h22v10zm4 0v-14h8.068c-3.705 3.121-6.068 7.788-6.068 13v1zm4-1c0-3.923 1.526-7.488 4-10.164v11.164h-4zm30 1h-4v-11.164c2.474 2.676 4 6.24 4 10.164zm-54-50v6h14v-6zm12 4h-10v-2h10zm-12 10h14v-6h-14zm2-4h10v2h-10zm-2 12h14v-6h-14zm2-4h10v2h-10zm-2 12h14v-6h-14zm2-4h10v2h-10zm28-26h-6v6h6zm-2 4h-2v-2h2zm10-4h-6v6h6zm-2 4h-2v-2h2zm-6 4h-6v6h6zm-2 4h-2v-2h2zm10-4h-6v6h6zm-2 4h-2v-2h2zm-6 4h-6v6h6zm-2 4h-2v-2h2zm-4 4v6h6v-5-1zm4 4h-2v-2h2z" fill="url(#SVGID_1_)"/></svg>