<svg id="Layer_5" enable-background="new 0 0 64 64" height="512" viewBox="0 0 64 64" width="512" xmlns="http://www.w3.org/2000/svg" xmlns:xlink="http://www.w3.org/1999/xlink"><linearGradient id="SVGID_1_" gradientUnits="userSpaceOnUse" x1="32" x2="32" y1="63" y2="1"><stop offset="0" stop-color="#9f2fff"/><stop offset="1" stop-color="#0bb1d3"/></linearGradient><path d="m49 31.139v-18.139c1.103 0 2-.897 2-2v-2c0-1.103-.897-2-2-2h-2.28l-2-6h-35.441l-2 6h-2.279c-1.103 0-2 .897-2 2v2c0 1.103.897 2 2 2v18h-2c-1.103 0-2 .897-2 2v2c0 1.103.897 2 2 2v26h44c8.822 0 16-7.178 16-16 0-8.144-6.12-14.872-14-15.861zm-38.279-28.139h32.559l1.334 4h-35.227zm-5.721 6h44l.001 2h-44.001zm2 4h40v18h-40zm-4 20h36.271c-1.015.562-1.954 1.239-2.819 2h-33.452zm2 4h29.53c-.505.629-.958 1.299-1.365 2h-26.165v8h24c0 .679.056 1.343.139 2h-15.139v12h-11zm21 14h5.527c.133.516.291 1.02.473 1.515v8.485h-6zm-2 10h-6v-10h6zm7.139-16h-4.139v-4h5.178c-.513 1.262-.864 2.603-1.039 4zm-22.139 0v-4h4v4zm6-4h4v4h-4zm6 0h4v4h-4zm13 20v-4.708c1.385 1.933 3.181 3.55 5.271 4.708zm13 0c-7.72 0-14-6.28-14-14s6.28-14 14-14 14 6.28 14 14-6.28 14-14 14zm0-26c-6.617 0-12 5.383-12 12s5.383 12 12 12 12-5.383 12-12-5.383-12-12-12zm0 2c1.621 0 3.147.396 4.503 1.083l-13.42 13.42c-.687-1.356-1.083-2.882-1.083-4.503 0-5.514 4.486-10 10-10zm-7.812 16.226 14.038-14.038c.586.468 1.118 1 1.586 1.586l-14.038 14.038c-.586-.468-1.118-1-1.586-1.586zm7.812 3.774c-1.621 0-3.147-.396-4.503-1.083l13.419-13.419c.688 1.355 1.084 2.881 1.084 4.502 0 5.514-4.486 10-10 10zm-18-28h14v-14h-14zm2-6h4v4h-4zm6 4v-4h4v4zm4-6h-4v-4h4zm-6-4v4h-4v-4zm-24 12h14v-14h-14zm2-6h4v4h-4zm6 4v-4h4v4zm4-6h-4v-4h4zm-6-4v4h-4v-4zm-10 40h2v2h-2zm2-8v2h-2v-2zm-2 4h2v2h-2z" fill="url(#SVGID_1_)"/></svg>