<svg height="496pt" viewBox="0 0 496 496" width="496pt" xmlns="http://www.w3.org/2000/svg" xmlns:xlink="http://www.w3.org/1999/xlink"><linearGradient id="a" gradientUnits="userSpaceOnUse" x1="248" x2="248" y1="496" y2="0"><stop offset="0" stop-color="#9f2fff"/><stop offset="1" stop-color="#0bb1d3"/></linearGradient><path d="m248 0c-136.753906 0-248 111.246094-248 248s111.246094 248 248 248 248-111.246094 248-248-111.246094-248-248-248zm0 480c-127.921875 0-232-104.078125-232-232s104.078125-232 232-232 232 104.078125 232 232-104.078125 232-232 232zm200-232h16c0 119.105469-96.894531 216-216 216s-216-96.894531-216-216 96.894531-216 216-216v16c-110.28125 0-200 89.71875-200 200s89.71875 200 200 200 200-89.71875 200-200zm-5.40625-46.855469 15.695312-3.128906 3.125 15.6875-15.695312 3.128906zm-12.882812-37.074219 14.785156-6.117187 6.128906 14.78125-14.785156 6.121094zm-19.863282-33.839843 13.296875-8.878907 8.886719 13.296876-13.296875 8.878906zm-14.769531-18-11.308594-11.308594 11.308594-11.3125 11.3125 11.3125zm-29.308594-26.078125-13.296875-8.886719 8.878906-13.296875 13.296876 8.886719zm-33.839843-19.863282-14.785157-6.128906 6.121094-14.785156 14.78125 6.128906zm-37.074219-12.882812-15.6875-3.125 3.128906-15.695312 15.6875 3.125zm-38.855469 242.59375h-16v-16h16zm0 48h-16v-32h16zm-104-168v40c-8.824219 0-16 7.175781-16 16v32c0 8.824219 7.175781 16 16 16v128h192v-128c8.824219 0 16-7.175781 16-16v-32c0-8.824219-7.175781-16-16-16h-144v-40c0-26.472656 21.527344-48 48-48s48 21.527344 48 48v24h48v-24c0-52.9375-43.0625-96-96-96s-96 43.0625-96 96zm176 216h-160v-112h24.65625c-5.472656 9.425781-8.65625 20.335938-8.65625 32 0 35.289062 28.710938 64 64 64s64-28.710938 64-64c0-11.664062-3.183594-22.574219-8.65625-32h24.65625zm-128-80c0-26.472656 21.527344-48 48-48s48 21.527344 48 48-21.527344 48-48 48-48-21.527344-48-48zm144-80v32h-53.808594c-11.28125-9.929688-26.023437-16-42.191406-16s-30.910156 6.070312-42.191406 16h-53.808594v-32zm-16-56v8h-16v-8c0-35.289062-28.710938-64-64-64s-64 28.710938-64 64v40h-16v-40c0-44.113281 35.886719-80 80-80s80 35.886719 80 80zm0 0" fill="url(#a)"/></svg>